<?xml version="1.0" encoding="utf-8"?>
<!-- Generator: Adobe Illustrator 22.0.0, SVG Export Plug-In . SVG Version: 6.00 Build 0)  -->
<svg version="1.1" id="Layer_1" xmlns="http://www.w3.org/2000/svg" xmlns:xlink="http://www.w3.org/1999/xlink" x="0px" y="0px"
	 viewBox="0 0 2280 1815.4" style="enable-background:new 0 0 2280 1815.4;" xml:space="preserve">
<style type="text/css">
	.st0{fill:#33624B;}
	.st1{fill:#224031;}
	.st2{fill:#448465;}
	.st3{opacity:0.8;fill:#33624B;}
	.st4{opacity:0.6;}
	.st5{fill:#F4D892;}
	.st6{fill:#EFC764;}
	.st7{opacity:0.2;fill:#5960A3;}
	.st8{fill:#F1A498;}
	.st9{fill:#5960A3;}
	.st10{fill:#545454;}
	.st11{fill:#D6D8D9;}
	.st12{fill:#FFC52D;}
	.st13{fill:#3A4774;}
	.st14{fill:#9780DA;}
	.st15{fill:#FCD6CB;}
	.st16{fill:#C2BAEF;}
	.st17{fill:#FFFFFF;}
	.st18{fill:#EF888B;}
	.st19{opacity:0.7;fill:#F1A498;}
	.st20{fill:#34406B;}
	.st21{fill:#34416B;}
	.st22{fill:#1D274A;}
	.st23{opacity:0.5;fill:#BF7F79;}
	.st24{opacity:0.5;fill:#F1A498;}
	.st25{fill:#1B274A;}
	.st26{fill:#192342;}
	.st27{fill:#FBCD2A;}
	.st28{fill:#E2B31E;}
	.st29{fill:#FBCC27;}
</style>
<g>
	<path class="st0" d="M1419.8,1212.4c-0.1-0.3-0.3-23.2-6.1-34c0,0-1.1-2.6,0-2c1.1,0.5,5.3,5.6,6.6,10.6c1.2,5,2.8,5.7,4.8,9
		c2,3.3,2.3,24.3,2.2,24.6s-3.1,0.4-3.3,0S1419.8,1212.4,1419.8,1212.4z"/>
	<path class="st1" d="M1427.3,1220.6c0,0.1-0.2,0.1-0.6,0.2l-5.9-23.5c-0.8-6.3-2.2-13.2-4.5-18.1c1.5,2,3.2,4.9,3.9,7.7
		c1.2,5,2.8,5.7,4.8,9C1427.1,1199.3,1427.4,1220.3,1427.3,1220.6z"/>
	<path class="st0" d="M1428.6,1188.2c0,0-1.6-12.1-1.6-15.8s-0.5-11.3,0-11.7s0.7-0.4,0.7,1.3c0,1.7,5.2,25.7,6.4,28.1
		c1.2,2.4-0.6,4.9,1.2,11.6c1.8,6.7,7.9,15,3.5,14.2c-4.4-0.8-12.1-4-10.8-10.7C1429.2,1198.6,1428.6,1188.2,1428.6,1188.2z"/>
	<path class="st1" d="M1434.9,1212.4c0.1-0.6-1.9-15.2-0.9-19.8c1-4.6,2.4-6.5,1.9-13c-0.5-6.5,0.5-13.5,1.2-13.6
		c0.6-0.2,1.2,5.8,1.2,9.1s1,15,1.3,16.8S1434.9,1212.4,1434.9,1212.4z"/>
	<path class="st0" d="M1434.9,1212.4c0,0,0.3-13.9,3.6-21.2s4.5-17.4,4.5-21.2c0-3.8,1.8-16.2,1.8-17s0.4-0.8,0.9,0.6
		c0.5,1.4,0,19.7,0,25.7c0,6-0.9,12.2-1.3,16c-0.4,3.8-7.1,26.2-9,25.6c-1.9-0.6-4.3-3.6-3.6-4.4S1434.9,1212.4,1434.9,1212.4z"/>
	<path class="st0" d="M1471.4,1153.2c0,0-0.5-0.4-1.1,0.3c-0.6,0.7-16.6,24.6-19.6,31.8l0.5,8.1l5.7-11.5L1471.4,1153.2z"/>
	<path class="st2" d="M1427.4,1223.9c-0.3,0-0.6-0.1-0.9-0.2c-0.4-0.1-0.8-0.2-1.2-0.3c-1.9-0.5-2.9,0.9-3.4,0.3
		c-0.8-0.9-5.2-9.9-6.8-12.2c-1.6-2.2-2.3-5.8-2.8-7.3c-0.5-1.5-3-8.2-2.8-9.5c0.2-1.1-0.1-2.4-0.2-3.5c-0.2-1.6-0.4-3.1-0.7-4.7
		c-0.1-0.4-0.2-1-0.1-1.2c0.1-0.1,0.2-0.1,0.4,0c0.7,0.4,1.3,2.1,1.6,2.8c0.3,0.7,1,2.9,1.8,3.8c0.8,0.9,1.5,2.2,1.8,3.3
		c0.3,1,1.2,3.4,2.1,4.8c0.9,1.4,4.1,7.1,5.1,8.9c0.6,1.2,2.8,6.6,4.4,10.6c0.1,0.1,0.1,0.3,0.2,0.4
		C1426.7,1222.2,1427.4,1223.9,1427.4,1223.9z"/>
	<path class="st2" d="M1435.3,1218.9l-5.1,5l-1.1-0.1l-1.2-0.1l-1.9-0.1c0,0-0.6-18.1-2-24.6s-5-24-7.7-29
		c-2.7-4.9-6.9-12.9-8.7-14.8c0,0-2.6-2.4-1-2.6c1.6-0.2,6.5,6,7.8,7.2c1.3,1.2,6.8,11.3,8.1,14c1.3,2.6,3.7,6.5,4.2,7.8
		c0.5,1.4,2.8,9.9,3.1,11.3c0.3,1.3,0.5,3,1.3,4c0.8,1,0.5,1.9,0.3,2.8s1,2.4,1.2,2.9c0.2,0.5,0,1.1,0,2.5c0,1.4,1.7,2.4,1.4,3.7
		s0.1,2,0.6,2.8c0.5,0.9-0.2,1.6,0,2.9c0.1,0.5,0.2,1.2,0.3,1.9c0,0.3,0.1,0.5,0.1,0.8C1435.2,1218.2,1435.3,1218.9,1435.3,1218.9z"
		/>
	<path class="st2" d="M1451.3,1191.5c0,0,1.1-1.6,1.3-2.8s0.4-0.9,1.4-2.2c1-1.2,1-1.9,1-2.5s0.1-0.6,0.7-1.3
		c0.6-0.7,0.9-1.8,0.9-2.3s0,0.5,0.7-0.8c0.7-1.3,0.7-2.9,1.4-3.3c0.7-0.4,1.3-0.9,1.4-1.4s-0.5-1.2,0-1.7s1-0.3,1.2-0.9
		s0.5-1.6,0.5-2.1s0.8-1.5,1-1.6s0.5-0.9,0.5-1.4s1.3-0.2,1.3-1c0-0.8-0.2-1.3,0-1.7c0.2-0.4,0.7-0.4,0.9-0.9s-0.3-1,0-1.6
		s0.9-0.5,1.1-1.1s0.2-1.1,0.7-1.7s-0.2,0.8,0.9-1c1.1-1.8,2.1-4.7,3-5.1c0,0,0.1,0.5-0.4,1.2c-0.5,0.7-1.9,3.7-2.7,6.6
		c-0.8,2.8-10,18.8-12.4,25.8c-2.4,7.1-6,15.3-6.6,16L1451.3,1191.5z"/>
	<path class="st0" d="M1464.7,1177.8c0,0-2-0.2-4.4,4.4s-7.7,16.1-9.4,18.8c-1.6,2.7-3.5,16.6-6.1,18.5c-2.6,2-0.1,2.3,2,0.5
		c2.1-1.7,6.3-12.8,7.4-16.2c0.7-2.2,3.5-11.7,6.3-18.7C1462,1181.6,1463.3,1178.5,1464.7,1177.8z"/>
	<path class="st2" d="M1463.3,1179.9c-2.7,2.7-6.5,20.5-9.1,30.8c-2.6,10.3-9.3,12.3-9.5,12.3c-0.5,0.1-4.3,0.9-4.3,0.9h0
		c0.2-0.1,0.3-0.1,0.5-0.2c0,0,0,0,0,0c6.6-3.1,11.6-16.4,12.2-17.5c0.5-1.1,0-1,0-1.6c0-0.6,0.8-0.5,1.2-1.2
		c0.4-0.8,0.3-1.9,0.2-2.9c-0.1-1,0.4-0.8,0.8-1.4c0.4-0.5,0.7-2.7,0.6-3.6c-0.1-0.9,0.2-1.2,0.9-1.6c0.8-0.5,0.8-1.6,0.8-2.9
		c0-1.2,0.4-1.4,1.2-2.1c0.8-0.7,3.3-8.4,4.4-9.9C1464.1,1177.4,1466,1177.2,1463.3,1179.9z"/>
	<path class="st2" d="M1450.8,1203.3c-0.5,2.2-0.9,16.3-10,20.4c0,0,0,0,0,0c-0.1,0.1-0.3,0.1-0.4,0.2h-10.1l0,0
		c0.1-0.1,1.6-2,3.3-4.3c0.5-0.7,1.1-1.5,1.7-2.3c1.2-1.7,2.2-3.3,2.8-4.6c1.7-3.6,1.3-4.3,1.5-5c0.2-0.8,0.6-0.3,1.2-1.3
		c0.5-1,0.4-2.6,0.4-3.3c0-0.7,1.2-1.8,1.5-2.3c0.3-0.5,0.5-3.6,1.6-4.9c0.2-0.2,0.3-0.4,0.4-0.5v0c0.7-0.8,1-1.1,1.4-2.1
		c0.5-1.2,4-7.9,3.7-12.5c-0.3-4.6,0.4-9.5,1-9.3c0.6,0.2,0.6,6.4,0.8,9.1C1451.5,1183.1,1451.2,1201,1450.8,1203.3z"/>
	<path class="st3" d="M1435.1,1217.3c0,0-2.7,4.1-6.1,6.5l-1.2-0.1c2.5-1.7,5.9-4.5,7.2-7.2C1435,1216.8,1435.1,1217,1435.1,1217.3z
		"/>
	<path class="st3" d="M1426.5,1223.7c-0.4-0.1-0.8-0.2-1.2-0.3c0-1.2,0.4-3.8,0.4-3.8c0.1,0.1,0.1,0.3,0.2,0.4
		C1425.9,1220.5,1426.3,1222.5,1426.5,1223.7z"/>
	<path class="st0" d="M1447.7,1216.1c0,0-1.3,1.9-2.9,3.6c-1.9,2-4.1,3.9-4.6,4.1c0,0,5.6-3.3,8.7-9.5L1447.7,1216.1z"/>
	<g class="st4">
		<path class="st1" d="M1464.6,1165c0,0.3,0.1,0.7,0.1,1.2c0,0.8-1.2,0.5-1.3,1c-0.1,0.5-0.3,1.2-0.5,1.4c-0.2,0.2-0.9,1.2-1,1.6
			c-0.1,0.5-0.3,1.5-0.5,2.1c-0.2,0.5-0.7,0.4-1.2,0.9c-0.5,0.5,0.1,1.2,0,1.7c-0.1,0.5-0.7,1-1.4,1.4c-0.7,0.4-0.7,2-1.4,3.3
			c-0.7,1.3-0.6,0.2-0.7,0.8c-0.1,0.5-0.3,1.6-0.9,2.3s-0.7,0.8-0.7,1.3c0,0.5,0,1.2-1,2.5c-1,1.2-1.2,1-1.4,2.2
			c-0.2,1.2-1.3,2.8-1.3,2.8l-0.3,1.9c0-1.4,0.4-5.1,0.4-5.2C1451.4,1188.1,1458.8,1175.2,1464.6,1165z"/>
	</g>
	<path class="st5" d="M1454,1225v4.8c0,0.3-0.3,0.6-0.6,0.6h0c-0.3,0-0.5,0.2-0.6,0.5l-2.1,12.7c-1,5.9-5.9,10.3-11.8,10.6
		c-0.2,0-0.4,0-0.6,0h-6.4c-6.2,0-11.6-4.6-12.5-10.7l-1.9-12.5c0-0.1-0.1-0.3-0.2-0.4c-0.1-0.1-0.2-0.1-0.4-0.1
		c-0.3,0-0.6-0.3-0.6-0.6v-4.8c0-1.2,1-2.2,2.2-2.2h33.5C1453.1,1222.9,1454,1223.9,1454,1225z"/>
	<path class="st6" d="M1453.4,1230.4c-0.3,0-0.5,0.2-0.6,0.5l-2.1,12.7c-1,5.9-5.9,10.3-11.8,10.6c6.9-6.2,6.6-15.6,5.5-19.4
		c-1.1-3.8-9-4.3-9-4.3H1453.4z"/>
</g>
<path class="st7" d="M1969.3,1597.8c0,0,36.9,67-94.5,63.2s-122-33.9-247.9-26.9c-125.9,7-310.9,27.7-244.4-60
	C1449,1486.3,1938.9,1501.2,1969.3,1597.8z"/>
<path class="st8" d="M1773.2,1567.4l-59.9-311.4c-0.2-1.1-1.3-1.9-2.5-1.7c-1.1,0.2-1.9,1.3-1.7,2.5l12,62.6
	c-0.3-0.7-1.1-1.3-1.9-1.3h-241.2l11.8-61.4c0.2-1.1-0.5-2.3-1.7-2.5c-1.1-0.2-2.2,0.6-2.5,1.7l-59.9,311.4
	c-0.2,1.1,0.5,2.3,1.7,2.5c0.1,0,0.3,0,0.4,0c1,0,1.9-0.7,2.1-1.7l47.3-245.8h242c1.1,0,2.1-0.9,2.1-2l47.7,247.8
	c0.2,1,1.1,1.7,2.1,1.7c0.1,0,0.3,0,0.4,0C1772.7,1569.7,1773.4,1568.6,1773.2,1567.4z"/>
<path class="st9" d="M1642.4,413c-131.7-194.9-173.2-133-427.8-122.7c-254.7,10.4-211.9-43.1-460.4-88.1
	c-62.5-11.3-129.3-5.9-181.1,34.2c-49.1,38.1-52.4,104.2-88.5,144.5c-2.7,3-5.5,5.8-8.6,8.5c-13.3,11.6-29.6,19.3-45,27.9
	c-50.9,28.7-110.6,83.2-114,146.4c-3.4,63.5,54.6,109,78.6,162.5c34.6,77-72,236.5,0.5,294.1c0,0,0,0,0,0
	c15.7,12.4,45.8,21.5,65.4,25.2c36.1,6.8,84.4-30.6,119.7-22.2c36.2,8.6,72.6,30.4,106.7,45.5c75.7,33.4,154.3,78.3,233.7,99.8
	c82.3,22.2,162.9,18,247.6,11.6c53.9-4.1,108.5-8.3,157.5-29.1c47.2-20,96.9-41.8,150.8-47.1c68.4-6.7,141.5,30.3,203.7,4.8
	c119.6-49.1,117-225.9,103.1-318.9C1764.9,658.8,1718.6,525.7,1642.4,413z"/>
<path class="st7" d="M1026.9,1475.6c0,0-22.5-31.8,57.7-30c80.2,1.8,74.5,16.1,151.4,12.8s189.8-13.2,149.2,28.5
	S1045.5,1521.5,1026.9,1475.6z"/>
<g>
	<path class="st10" d="M1671.3,1245.3v1.8c0,1.7-1.4,3.1-3.1,3.1h-163.7l35.1-5.5L1671.3,1245.3z"/>
	<g>
		<polygon class="st11" points="1539.4,1244.8 1500.7,1153 1458.6,1146.3 1504.5,1250.3 		"/>
		<path class="st10" d="M1498.9,1156c1.2,2.6,34.6,83.4,34.6,83.4l-27.2,1.5l-39-90.2L1498.9,1156z"/>
		<path class="st11" d="M1539.5,1244.8l131.8,0.5l-10.1,3.3c-3.4,1.1-7,1.7-10.6,1.7h-146.3L1539.5,1244.8z"/>
		<polygon class="st10" points="1556.3,1247.9 1607.3,1247.9 1589.5,1246.1 1548.4,1246.1 		"/>
		<polygon class="st10" points="1618,1247.9 1621.6,1247.9 1604,1246.1 1597.2,1246.1 		"/>
	</g>
</g>
<g>
	<ellipse class="st7" cx="1956.8" cy="1518.2" rx="87.1" ry="13.1"/>
	<path class="st12" d="M1908.1,1206c8,12.5,9.6,27.9,16,41.3c5.3,11.2,14,20.8,24.6,27.2c2.9,1.8,4.7,2.7,5.9,4
		c1,1.2,1.5,2.8,1.8,5.6c1.1,9.8,1.2,19.7,1.5,29.6c1,34.4,1.2,68.8,1.3,103.2c0,8.6,0,17.3,0,25.9h4.3c-0.1-16.6-1-33.2-1.4-49.6
		c-1-43.8-4.7-88.1-2.9-131.8c0.5-11.4-0.2-23.4-5.8-33.4c-3.5-6.1-8.6-11.1-13.6-16c-12.4-11.9-24.9-24-40-32.3
		c-1.2,5.3-0.6,11,1.7,15.9C1903.3,1199.4,1905.9,1202.6,1908.1,1206z"/>
	<path class="st13" d="M1955.4,1442.9h7c3.4-52.5,12.3-168.9,25.8-189.1c2.9,0,37.9-19.6,39.3-25.5c1.4-6,1.5-17.3,4.4-25.1
		c3.4-9.1,5.8-17.8,6.8-27.5c0.6-5.7,8.5-14.1,6.5-19.7c-1.7-4.6-15,7.5-20,12.5s-12.9,15.8-20.8,20.4c-7.9,4.6-18.3,27.1-20.8,36.2
		c-2.5,9.2,0,26.2,0,26.2s-21.7,93.7-25,145.3C1957.4,1416.4,1956.3,1431.6,1955.4,1442.9z"/>
	<path class="st13" d="M1955.8,1402.3c-0.1,18.8-0.2,31.7-0.3,40.5h9.1c1.7-33.4-0.9-102.5-46-139.3c0,0,6.6-0.8,4.1-11.9
		c-2.5-11.1-18.5-23.9-18-30c0.5-5.7-4.7-10.6-7.2-15.8c-5.3-11-14-9.2-21.3-17.5c-1.9-2.2-9.4-15.2-13.1-13.2
		c-3.7,1.9-2.4,19.3-2.1,21.2c0.9,6.2,2.9,14.3,8.7,17.8c7.5,4.6,9.2,25.4,15,29.6c5.8,4.2,27.5,21.2,32.1,21.6
		C1921.2,1305.8,1956.2,1342.8,1955.8,1402.3z"/>
	<path class="st12" d="M2086.7,1244.4c-4.5,1.9-9.2,3.4-14,4.4c-3.3,0.7-6.8,1.3-9.6,3.1c-2.7,1.8-4.6,4.7-7.2,6.7
		c-3,2.2-6.9,2.9-10.2,4.7c-5.4,2.8-9.1,8.1-11.6,13.7c-2.4,5.6-3.8,11.6-5.7,17.3c-0.6,1.7-1.2,3.5-2.4,4.9
		c-1.3,1.5-3.1,2.5-4.8,3.5c-21.2,12.2-38.3,31.6-49.4,53.2c-9.3,18.1-14.8,38-17.2,58.2c-1.1,9.5-1.6,19.1-1.3,28.7h8.9
		c-1-15.5-0.7-31,1.5-46.4c1.9-13.1,5.2-26,10.5-38.2c4.1-9.4,9.3-18.4,15.8-26.4c5-6.2,10.7-11.9,17-16.8c4.4-3.5,9.2-6.6,14.1-9.3
		c3.4-1.9,8.9-6,12.6-5.6c4.9,0.6,9.8,2.4,14.7,0.9c3.5-1.1,6.4-3.6,9.1-6.1c8.9-8,18.2-15.8,26.3-24.6c8.1-8.9,15.1-19,18.8-30.4
		c0.1-0.4,0.2-0.8,0.2-1.1c-0.1-0.9-1.1-1.4-2-1.3c-0.9,0.1-1.7,0.6-2.4,1C2094.5,1240.8,2090.7,1242.7,2086.7,1244.4z"/>
	<path class="st13" d="M1924.9,1359.8c13.1,6.7,20.4,28.6,24.6,40.7c3.6,10.3,4,35.2,4,42.4h4.1c0.1-65.6-31.5-86.2-31.5-86.2
		c-0.7-23.9-20.1-25-29.4-25s-18.8-4.2-25-6c-6.2-1.8-9.3-1.8-9.3,1.1s15.9,7.3,23.2,11.7c0.9,0.6,26.5,17.7,29.8,19.1
		C1918.9,1358.9,1924.9,1359.8,1924.9,1359.8z"/>
	<path class="st14" d="M2055.7,1308.9c-7.1,2.1-17.9,6.9-28.5,6.9s-32.7,1.2-33.5,28.5c0,0-36.1,23.5-35.9,98.6h4.7
		c0-7.8,0.4-36.8,4.6-48.6c4.8-13.7,13.1-38.7,28.1-46.4c0,0,6.9-1,10.7-2.6c3.9-1.6,33-21.1,34-21.8c8.2-5,26.4-10,26.4-13.3
		C2066.3,1306.8,2062.7,1306.8,2055.7,1308.9z"/>
	<path class="st14" d="M1939.9,1326.9c4.1-0.5,22,81.9,16.4,116h4.4c0.3-11.5,0.8-71.6-18.9-117.4c-0.7-1.6-0.2-5.7-0.5-7.6
		c-0.9-6.4-1.6-13.5-7.1-17.8c-7.1-5.6-15-11.5-23.8-14c-9-2.5-18.6-2.4-27.5-5.5c-8.6-3.1-19.7-13.6-20.5-8.9
		c0,0,15,28.6,21.9,31.1c6.9,2.5,22.8,9.7,27.5,14.4C1916.6,1321.9,1935.8,1327.4,1939.9,1326.9z"/>
	<path class="st14" d="M2060.3,1214.3c-0.1-0.1-0.2-0.2-0.3-0.2c-15.5,12.8-37.7,13.1-55.6,22.2c-8.9,4.5-16.6,11.2-24.1,17.8
		c-3.3,2.8-6.6,5.8-8.5,9.7c-2.8,5.7-2.1,12.4-0.3,18.5c0.4,1.5,0.9,3,1,4.6c0,1.3-0.3,2.5-0.5,3.7c-8.6,37.8-14.9,75.9-17.5,114.6
		c-0.8,12.6-1.4,25.2-1.2,37.9l7.1,0c-3.6-35.8,0.3-72.4,5.5-107.8c2.2-14.8,5-29.5,7.7-44.2c0.1-0.8,0.3-1.6,0.8-2.3
		c1.3-2,4.5-1.7,6.5-2.2c3.4-0.8,6.6-2.5,9.7-4.2c10.5-5.5,21-11.1,30.3-18.3c15.6-12.1,27.2-28.5,38.6-44.6
		C2060.4,1217.8,2061.4,1215.6,2060.3,1214.3z"/>
	<path class="st15" d="M1997.9,1435.6h-42.5H1913c0,0-2.4,69.8,24.3,85.7c0.9,0.6,2,0.8,3.1,0.8h15.1h15.1c1.1,0,2.2-0.3,3.1-0.8
		C2000.3,1505.4,1997.9,1435.6,1997.9,1435.6z"/>
	<path class="st8" d="M1973.6,1521.4c-0.9,0.6-2,0.8-3.1,0.8h-13.7c1.1,0,2.2-0.3,3.1-0.8c26.7-16,24.3-85.7,24.3-85.7h13.7
		C1997.9,1435.6,2000.3,1505.4,1973.6,1521.4z"/>
	<path class="st14" d="M1862.8,1325.6c5.9,0.9,11.8,2.4,17.5,4.2c2.9,0.9,5.7,2,8.5,3c2.8,1,5.6,2.1,8.4,3.1
		c2.8,1.1,5.6,2.3,8.3,3.6c1.4,0.7,2.7,1.4,4,2.1c1.3,0.8,2.6,1.6,3.8,2.4c2.5,1.7,4.9,3.6,7,5.8c2.1,2.2,3.9,4.7,4.9,7.6l-0.1,0
		c-1.3-2.7-3.2-5.1-5.3-7.1c-2.1-2.1-4.5-3.9-7-5.5c-5-3.3-10.3-6-15.8-8.5c-2.7-1.2-5.5-2.3-8.4-3.3c-2.8-1-5.7-1.8-8.6-2.6
		C1874.3,1328.7,1868.6,1327.1,1862.8,1325.6L1862.8,1325.6z"/>
	<path class="st16" d="M1864.8,1271.5c0.6,1.9,1.5,3.7,2.6,5.3c0.3,0.4,0.6,0.8,0.9,1.2l1,1.1c0.7,0.7,1.4,1.4,2.1,2.1
		c0.7,0.7,1.6,1.2,2.3,1.8l1.3,0.8c0.4,0.3,0.8,0.5,1.3,0.7c0.9,0.4,1.7,0.9,2.7,1.3l1.4,0.6c0.5,0.2,0.9,0.3,1.4,0.5
		c1.9,0.7,3.8,1.2,5.7,1.7l5.8,1.6c3.9,1.1,7.7,2.2,11.5,3.6c3.8,1.3,7.4,3.1,11,5.1c1.7,1.1,3.5,2.1,5.1,3.3
		c0.8,0.6,1.6,1.2,2.4,1.8l2.3,2c6.1,5.3,10.9,11.9,14.6,19.1l-0.1,0l-3.3-5.1l-3.6-4.8l-2-2.3c-0.7-0.7-1.3-1.5-2-2.2l-2.1-2.1
		c-0.4-0.3-0.7-0.7-1.1-1l-1.1-1l-2.3-2l-2.4-1.8c-1.6-1.3-3.3-2.2-5-3.3c-3.5-2-7-3.8-10.7-5.3c-3.7-1.5-7.5-2.7-11.4-3.7
		c-3.9-1.1-7.8-1.8-11.7-3c-3.8-1.2-7.6-3.1-10.5-5.9c-1.5-1.3-2.8-2.9-3.9-4.6C1866,1275.4,1865.2,1273.5,1864.8,1271.5
		L1864.8,1271.5z"/>
	<path class="st14" d="M1899.1,1283.9c-0.6-3.1-1.6-6.1-2.8-9c-1.3-3.1-2.7-6.1-4.3-9c-1.6-3-3.4-5.8-5.3-8.5
		c-1.9-2.8-4.1-5.3-6.4-7.7c-1.2-1.2-2.5-2.3-3.8-3.3c-1.4-1-2.8-1.8-4-3c-2.4-2.3-3.9-5.3-5.1-8.4c-2.4-6.1-3.6-12.7-4.3-19.3h-0.1
		c0,3.3,0.4,6.7,1,10c0.6,3.3,1.5,6.6,2.8,9.6c1.3,3.1,3.1,6,5.6,8.3c1.2,1.2,2.7,2,4,3c0.7,0.5,1.3,1.1,1.9,1.6
		c0.6,0.5,1.2,1.2,1.8,1.8c4.5,4.9,8.1,10.5,11.3,16.3c1.6,2.9,3.1,5.9,4.5,8.9c1.3,2.8,2.4,5.7,3.3,8.7L1899.1,1283.9z"/>
	<path class="st13" d="M1899.7,1181.4c0.2,0.5,0.6,1,0.9,1.5c0.3,0.5,0.7,1,1,1.5l2.1,2.9c1.4,1.9,2.8,3.8,4.3,5.6
		c2.9,3.7,5.9,7.3,9,10.9c1.5,1.8,3.1,3.5,4.8,5.1c0.8,0.8,1.7,1.6,2.6,2.4c0.9,0.8,1.9,1.5,2.7,2.3c3.3,3.4,6,7.3,8.6,11.2
		c2.6,4,4.9,8.1,7,12.3c2.1,4.2,4.2,8.5,5.9,12.8c1.8,4.4,3.4,8.8,4.7,13.3c1.2,4.5,2.4,9.2,2.3,13.9l-0.1,0c-0.1-2.4-0.5-4.7-1-7
		c-0.5-2.3-1.2-4.5-1.8-6.8c-1.4-4.5-3.1-8.9-4.9-13.2c-3.6-8.7-7.8-17.1-12.6-25.2c-1.2-2-2.5-4-3.9-5.9c-1.4-1.9-2.8-3.8-4.5-5.4
		c-0.8-0.8-1.8-1.5-2.7-2.3c-0.9-0.7-1.8-1.5-2.7-2.3c-1.7-1.6-3.4-3.3-5-5c-3.2-3.5-6.1-7.2-9-10.9c-1.4-1.9-2.8-3.8-4.1-5.8
		c-0.7-1-1.3-2-1.9-3c-0.3-0.5-0.6-1-0.9-1.5c-0.2-0.3-0.3-0.5-0.4-0.8C1899.8,1182,1899.7,1181.7,1899.7,1181.4L1899.7,1181.4z"/>
	<path class="st16" d="M2060.1,1214.6c-0.6,1.1-1.3,2-2.1,3c-0.8,0.9-1.6,1.8-2.5,2.7c-1.7,1.7-3.6,3.3-5.5,4.8
		c-3.8,2.9-7.9,5.6-12.2,7.9c-4.3,2.3-8.6,4.3-13.1,6.3c-2.2,1-4.4,2-6.6,3.1c-1.1,0.5-2.1,1.1-3.2,1.7c-1,0.6-2.1,1.1-3.1,1.8
		c-2,1.3-4.1,2.5-6.1,3.9c-1,0.7-2,1.3-3,2l-2.9,2.2c-1,0.7-1.9,1.5-2.8,2.3c-0.9,0.8-1.9,1.5-2.7,2.3l-2.7,2.4l-2.6,2.5
		c-3.3,3.5-6.4,7.1-9.1,11.1c-2.7,4-5,8.2-6.5,12.8l-0.1,0c1.2-4.7,3.4-9.1,6-13.1c2.6-4.1,5.7-7.8,9.1-11.3
		c6.7-7,14.7-12.7,23.1-17.4c1-0.6,2.1-1.1,3.2-1.7c1.1-0.5,2.1-1.1,3.2-1.6l6.6-3.1l3.3-1.5c1.1-0.5,2.1-1.1,3.2-1.6
		c2.2-1.1,4.2-2.3,6.3-3.5c4.2-2.4,8.3-4.9,12.1-7.8c1.9-1.4,3.8-2.9,5.6-4.6C2056.9,1218.3,2058.7,1216.6,2060.1,1214.6
		L2060.1,1214.6z"/>
	<path class="st14" d="M2043.9,1155.5c-6.1,6.9-12,14-17.7,21.3c-2.9,3.6-5.7,7.2-8.4,11c-2.7,3.8-5.2,7.6-7.5,11.6
		c-2.3,4-4.6,8-6.7,12.1c-2.1,4.1-3.9,8.3-5.6,12.6c-1.6,4.3-3,8.7-4,13.2c-0.4,2.1-0.8,4.2-1,6.3c-0.2,0.1-0.3,0.2-0.5,0.3
		c0.1-2.3,0.4-4.5,0.9-6.7c0.9-4.6,2.2-9,3.8-13.3c3.3-8.7,7.7-16.8,12.7-24.6c2.5-3.9,5.1-7.7,7.7-11.5c2.6-3.8,5.3-7.6,8.1-11.3
		c2.8-3.7,5.7-7.2,8.7-10.7C2037.5,1162.1,2040.6,1158.7,2043.9,1155.5L2043.9,1155.5z"/>
	<path class="st13" d="M2100.6,1238c0.1,0,0.1,0.1,0.1,0.1c0,0,0,0.1,0,0.1c0,0.1-0.1,0.1-0.1,0.2c-0.1,0.1-0.1,0.2-0.2,0.3
		c-0.2,0.2-0.3,0.4-0.5,0.6c-0.3,0.4-0.7,0.7-1,1c-0.7,0.7-1.4,1.4-2.1,2c-1.4,1.3-2.9,2.6-4.3,3.8c-3,2.5-6,4.9-9.1,7.1
		c-3.2,2.2-6.4,4.3-10,5.9c-0.9,0.4-1.8,0.6-2.7,1.1c-0.9,0.4-1.7,0.9-2.5,1.3c-1.7,0.9-3.3,2-4.9,3.1c-6.3,4.3-12.4,9.1-18.1,14.2
		c-1.4,1.3-2.8,2.6-4.2,4c-1.4,1.3-2.7,2.7-3.9,4.2c-1.3,1.4-2.5,2.9-3.5,4.5c-1,1.6-2,3.3-2.5,5.1l-0.1,0c0.4-1.9,1.2-3.7,2.2-5.3
		c1-1.7,2.2-3.2,3.4-4.7c2.5-3,5.2-5.7,8-8.3c2.9-2.6,5.8-5.1,8.9-7.4c3.1-2.3,6.2-4.5,9.5-6.6c1.6-1,3.3-2,5-2.9
		c0.8-0.5,1.7-0.9,2.6-1.3c0.9-0.4,1.8-0.7,2.7-1.1c1.8-0.8,3.4-1.8,5-2.8c1.6-1.1,3.2-2.2,4.7-3.3c3.1-2.3,6.1-4.6,9.1-7
		c1.5-1.2,3-2.4,4.5-3.7l2.2-1.9c0.4-0.3,0.7-0.6,1.1-1c0.2-0.2,0.3-0.3,0.5-0.5c0.1-0.1,0.2-0.2,0.2-0.3
		C2100.5,1238.3,2100.6,1238.1,2100.6,1238L2100.6,1238z"/>
	<path class="st16" d="M2065.4,1308.1c-6.2,2.4-12.3,4.7-18.5,6.9c-3.1,1.1-6.2,2.2-9.3,3.4c-1.5,0.6-3,1.3-4.5,2l-4.5,2
		c-6,2.7-12,5.4-17.7,8.8c-1.4,0.8-2.8,1.7-4.1,2.7c-1.3,0.9-2.6,1.9-3.9,3c-2.4,2.2-4.6,4.7-6.1,7.6l-0.1,0
		c1.2-3.1,3.3-5.8,5.7-8.1c2.4-2.3,5.1-4.2,8-6c2.8-1.7,5.8-3.2,8.8-4.6c3-1.4,6.1-2.6,9.1-3.9c3.1-1.2,6.1-2.5,9.1-3.8
		c3-1.3,6.1-2.6,9.1-3.8C2052.8,1312,2059,1309.9,2065.4,1308.1L2065.4,1308.1z"/>
</g>
<g>
	<path class="st17" d="M1441.9,908.1H709c-19.1,0-34.7-15.6-34.7-34.7V429.4c0-19.1,15.6-34.7,34.7-34.7h732.9
		c19.1,0,34.7,15.6,34.7,34.7v444.1C1476.6,892.5,1461,908.1,1441.9,908.1z"/>
</g>
<g>
	<path class="st9" d="M993.9,701.8h-71.3c-1.4,0-2.6-1.2-2.6-2.6V696c0-1.4,1.2-2.6,2.6-2.6h71.3c1.4,0,2.6,1.2,2.6,2.6v3.1
		C996.5,700.6,995.3,701.8,993.9,701.8z"/>
</g>
<g>
	<g>
		<g>
			<rect x="769.5" y="695.5" class="st9" width="14" height="129.4"/>
		</g>
		<g>
			<rect x="794.1" y="701.8" class="st9" width="14" height="123.2"/>
		</g>
		<g>
			<rect x="818.7" y="770" class="st9" width="14" height="54.9"/>
		</g>
		<g>
			<rect x="843.4" y="723.3" class="st9" width="14" height="101.6"/>
		</g>
	</g>
	<g>
		<rect x="747.4" y="681.1" class="st9" width="2.9" height="145.3"/>
	</g>
	<g>
		
			<rect x="814.1" y="756.7" transform="matrix(6.123234e-17 -1 1 6.123234e-17 -9.324 1640.515)" class="st9" width="2.9" height="136.5"/>
	</g>
	<g>
		<polygon class="st9" points="893.4,824.9 877.7,815.8 877.7,834 		"/>
	</g>
	<g>
		<polygon class="st9" points="748.8,668.3 739.7,684 757.9,684 		"/>
	</g>
</g>
<g>
	<g>
		<path class="st16" d="M1398.7,778.7h-262c-1.4,0-2.6-1.2-2.6-2.6v-11.6c0-1.4,1.2-2.6,2.6-2.6h262c1.4,0,2.6,1.2,2.6,2.6v11.6
			C1401.4,777.5,1400.2,778.7,1398.7,778.7z"/>
	</g>
	<g>
		<path class="st16" d="M1326.2,816.2h-189.4c-1.4,0-2.6-1.2-2.6-2.6V802c0-1.4,1.2-2.6,2.6-2.6h189.4c1.4,0,2.6,1.2,2.6,2.6v11.6
			C1328.8,815,1327.6,816.2,1326.2,816.2z"/>
	</g>
</g>
<g>
	<g>
		<path class="st16" d="M1354.3,628.5h-167.1c-1.4,0-2.6-1.2-2.6-2.6v-5c0-1.4,1.2-2.6,2.6-2.6h167.1c1.4,0,2.6,1.2,2.6,2.6v5
			C1356.9,627.3,1355.7,628.5,1354.3,628.5z"/>
	</g>
	<g>
		<path class="st16" d="M1348.3,651.3h-161.2c-1.4,0-2.6-1.2-2.6-2.6v-5c0-1.4,1.2-2.6,2.6-2.6h161.2c1.4,0,2.6,1.2,2.6,2.6v5
			C1351,650.1,1349.8,651.3,1348.3,651.3z"/>
	</g>
	<g>
		<path class="st16" d="M1399.5,674.1h-212.3c-1.4,0-2.6-1.2-2.6-2.6v-5c0-1.4,1.2-2.6,2.6-2.6h212.3c1.4,0,2.6,1.2,2.6,2.6v5
			C1402.1,672.9,1400.9,674.1,1399.5,674.1z"/>
	</g>
	<g>
		<path class="st16" d="M1307.1,696.9h-119.9c-1.4,0-2.6-1.2-2.6-2.6v-5c0-1.4,1.2-2.6,2.6-2.6h119.9c1.4,0,2.6,1.2,2.6,2.6v5
			C1309.7,695.7,1308.5,696.9,1307.1,696.9z"/>
	</g>
</g>
<g>
	<path class="st9" d="M1336.4,532.6c0,31.1-25.2,56.4-56.4,56.4s-56.4-25.2-56.4-56.4s25.2-56.4,56.4-56.4v56.4H1336.4z"/>
</g>
<g>
	<path class="st16" d="M1344.1,524.5c0-31.3-25.4-56.6-56.6-56.6 M1287.5,467.9v56.6h56.6"/>
</g>
<g>
	<path class="st16" d="M1069.3,622.5H739.8c-4.7,0-8.6-3.8-8.6-8.6V466.5c0-4.7,3.8-8.6,8.6-8.6h329.5c4.7,0,8.6,3.8,8.6,8.6v147.4
		C1077.9,618.6,1074,622.5,1069.3,622.5z"/>
</g>
<g>
	<g>
		<path class="st17" d="M1057.6,496.9H850c-1.4,0-2.6-1.2-2.6-2.6v-3.1c0-1.4,1.2-2.6,2.6-2.6h207.5c1.4,0,2.6,1.2,2.6,2.6v3.1
			C1060.2,495.7,1059,496.9,1057.6,496.9z"/>
	</g>
	<g>
		<path class="st17" d="M982,515.5H850c-1.4,0-2.6-1.2-2.6-2.6v-3.1c0-1.4,1.2-2.6,2.6-2.6h132c1.4,0,2.6,1.2,2.6,2.6v3.1
			C984.6,514.4,983.5,515.5,982,515.5z"/>
	</g>
	<g>
		<path class="st17" d="M1024.2,534.1H850c-1.4,0-2.6-1.2-2.6-2.6v-3.1c0-1.4,1.2-2.6,2.6-2.6h174.2c1.4,0,2.6,1.2,2.6,2.6v3.1
			C1026.8,533,1025.7,534.1,1024.2,534.1z"/>
	</g>
	<g>
		<path class="st17" d="M900.4,552.8H850c-1.4,0-2.6-1.2-2.6-2.6V547c0-1.4,1.2-2.6,2.6-2.6h50.4c1.4,0,2.6,1.2,2.6,2.6v3.1
			C903,551.6,901.8,552.8,900.4,552.8z"/>
	</g>
	<g>
		<path class="st17" d="M1057.6,582.4H760.9c-1.4,0-2.6-1.2-2.6-2.6v-3.1c0-1.4,1.2-2.6,2.6-2.6h296.7c1.4,0,2.6,1.2,2.6,2.6v3.1
			C1060.2,581.2,1059,582.4,1057.6,582.4z"/>
	</g>
	<g>
		<path class="st17" d="M1048.1,601H760.9c-1.4,0-2.6-1.2-2.6-2.6v-3.1c0-1.4,1.2-2.6,2.6-2.6h287.2c1.4,0,2.6,1.2,2.6,2.6v3.1
			C1050.7,599.8,1049.5,601,1048.1,601z"/>
	</g>
</g>
<g>
	<circle class="st9" cx="788.3" cy="518.5" r="30"/>
</g>
<g>
	<g>
		<path class="st16" d="M781.9,360.9c-9,0-16.4-7.4-16.4-16.4s7.4-16.4,16.4-16.4s16.4,7.4,16.4,16.4S790.9,360.9,781.9,360.9z
			 M781.9,330.7c-7.6,0-13.8,6.2-13.8,13.8s6.2,13.8,13.8,13.8c7.6,0,13.8-6.2,13.8-13.8S789.5,330.7,781.9,330.7z"/>
	</g>
	<g>
		<path class="st16" d="M781.9,330.7c-0.7,0-1.3-0.6-1.3-1.3v-137h-321c-0.7,0-1.3-0.6-1.3-1.3s0.6-1.3,1.3-1.3h322.3
			c0.7,0,1.3,0.6,1.3,1.3v138.3C783.2,330.1,782.6,330.7,781.9,330.7z"/>
	</g>
</g>
<g>
	<g>
		<path class="st16" d="M1408.7,361.9c-9,0-16.4-7.4-16.4-16.4s7.4-16.4,16.4-16.4s16.4,7.4,16.4,16.4S1417.7,361.9,1408.7,361.9z
			 M1408.7,331.7c-7.6,0-13.8,6.2-13.8,13.8s6.2,13.8,13.8,13.8c7.6,0,13.8-6.2,13.8-13.8S1416.3,331.7,1408.7,331.7z"/>
	</g>
	<g>
		<path class="st16" d="M1408.7,331.7c-0.7,0-1.3-0.6-1.3-1.3v-90.1c0-0.7,0.6-1.3,1.3-1.3h245.4c0.7,0,1.3,0.6,1.3,1.3
			c0,0.7-0.6,1.3-1.3,1.3H1410v88.8C1410,331.1,1409.4,331.7,1408.7,331.7z"/>
	</g>
</g>
<g>
	<g>
		<path class="st16" d="M1535.3,660.1c-9,0-16.4-7.4-16.4-16.4s7.4-16.4,16.4-16.4s16.4,7.4,16.4,16.4S1544.4,660.1,1535.3,660.1z
			 M1535.3,629.9c-7.6,0-13.8,6.2-13.8,13.8c0,7.6,6.2,13.8,13.8,13.8c7.6,0,13.8-6.2,13.8-13.8
			C1549.1,636.1,1542.9,629.9,1535.3,629.9z"/>
	</g>
	<g>
		<path class="st16" d="M1828.2,645h-277.7c-0.8,0-1.4-0.6-1.4-1.3s0.6-1.3,1.4-1.3h277.7c0.8,0,1.4,0.6,1.4,1.3
			S1828.9,645,1828.2,645z"/>
	</g>
</g>
<g>
	<g id="XMLID_118_">
		<path class="st9" d="M1805.9,290.6h-123.5c-4.3,0-7.7-3.4-7.7-7.7v-85.2c0-4.3,3.4-7.7,7.7-7.7h123.5c4.3,0,7.7,3.4,7.7,7.7v85.2
			C1813.6,287.1,1810.2,290.6,1805.9,290.6"/>
	</g>
	<g id="XMLID_117_">
		<path class="st16" d="M1784.9,218.7c0,7.9-6.4,14.4-14.4,14.4c-7.9,0-14.4-6.4-14.4-14.4s6.4-14.4,14.4-14.4
			C1778.4,204.4,1784.9,210.8,1784.9,218.7"/>
	</g>
	<g id="XMLID_116_">
		<path class="st17" d="M1801.6,218.7c0,7.9-6.4,14.4-14.4,14.4s-14.4-6.4-14.4-14.4s6.4-14.4,14.4-14.4S1801.6,210.8,1801.6,218.7"
			/>
	</g>
	<g id="XMLID_115_">
		<path class="st17" d="M1708.2,206.7h-21.6c-1.3,0-2.4,1.1-2.4,2.4c0,1.3,1.1,2.4,2.4,2.4h21.6c1.3,0,2.4-1.1,2.4-2.4
			C1710.6,207.8,1709.5,206.7,1708.2,206.7"/>
	</g>
	<g>
		<path class="st17" d="M1739.4,218h-5.7h-13.9h-2h-5.7h-3.9h-10h-11.6c-1.3,0-2.4,1.1-2.4,2.4c0,1.3,1.1,2.4,2.4,2.4h11.6h10h3.9
			h5.7h2h13.9h5.7c1.3,0,2.4-1.1,2.4-2.4C1741.8,219.1,1740.7,218,1739.4,218z"/>
	</g>
	<g id="XMLID_114_">
		<path class="st17" d="M1741.8,209.1c0-1.3-1.1-2.4-2.4-2.4h-21.6c-1.3,0-2.4,1.1-2.4,2.4c0,1.3,1.1,2.4,2.4,2.4h21.6
			C1740.7,211.5,1741.8,210.5,1741.8,209.1"/>
	</g>
	<g id="XMLID_108_">
		<rect x="1686.7" y="259.4" class="st16" width="21.6" height="14.4"/>
	</g>
	<g id="XMLID_107_">
		<rect x="1717.8" y="259.4" class="st16" width="21.6" height="14.4"/>
	</g>
	<g id="XMLID_106_">
		<rect x="1748.9" y="259.4" class="st16" width="21.6" height="14.4"/>
	</g>
	<g id="XMLID_105_">
		<rect x="1780.1" y="259.4" class="st16" width="21.6" height="14.4"/>
	</g>
</g>
<g>
	<g>
		<path class="st9" d="M1833.9,591.9c0.1,3.1,0.6,6.2,1.5,9.2l-5.6,4.3c-1.8,1.4-2.3,3.9-1.1,5.9l5.5,9.1c1.2,2,3.6,2.7,5.7,1.8
			l6.3-2.9c2.3,2.2,4.9,4.2,7.8,5.8l-0.9,7c-0.3,2.3,1.2,4.4,3.4,4.9l10.3,2.5c2.2,0.5,4.5-0.7,5.3-2.8l2.4-6.4
			c3.5,0,6.9-0.5,10.2-1.5l4.1,5.3c1.4,1.8,3.9,2.3,5.9,1.1l9.1-5.5c2-1.2,2.7-3.6,1.8-5.7l-2.7-6.1c2.4-2.5,4.4-5.2,6.1-8.2
			l6.3,0.8c2.3,0.3,4.4-1.2,4.9-3.4l2.5-10.3c0.5-2.2-0.7-4.5-2.8-5.3l-5.9-2.2c0-3.4-0.5-6.7-1.4-9.9l4.9-3.8
			c1.8-1.4,2.3-3.9,1.1-5.9l-5.5-9.1c-1.2-2-3.6-2.7-5.7-1.8l-5.5,2.5c-2.5-2.5-5.4-4.6-8.5-6.3l0.8-6.1c0.3-2.3-1.2-4.4-3.4-4.9
			l-10.3-2.5c-2.2-0.5-4.5,0.7-5.3,2.8l-2.2,5.8c-3.7,0.1-7.3,0.6-10.8,1.7l-3.8-4.9c-1.4-1.8-3.9-2.3-5.9-1.1l-9.1,5.5
			c-2,1.2-2.7,3.6-1.8,5.7l2.7,6c-2.3,2.5-4.3,5.2-5.8,8.2l-6.5-0.8c-2.3-0.3-4.4,1.2-4.9,3.4l-2.5,10.3c-0.5,2.2,0.7,4.5,2.8,5.3
			L1833.9,591.9z M1878.2,573.2c9.4,2.3,15.2,11.9,12.9,21.3s-11.9,15.2-21.3,12.9c-9.4-2.3-15.2-11.9-12.9-21.3
			S1868.8,570.9,1878.2,573.2z"/>
	</g>
	<g>
		<path class="st9" d="M1981.6,629.7l-4.3-5.9c-1.3-1.8-3.8-2.4-5.8-1.3l-3.7,2.1c-2.2-1.9-4.7-3.4-7.4-4.6l0.2-4.4
			c0.1-2.3-1.5-4.2-3.7-4.6l-7.3-1.1c-2.2-0.3-4.4,1-5,3.2l-1.2,4.2c-3,0.3-5.9,1-8.7,2.1l-3-3.3c-1.5-1.7-4.1-1.9-5.9-0.6l-6,4.4
			c-1.8,1.3-2.4,3.8-1.3,5.8l2.3,4.1c-1.7,2.2-3.1,4.6-4.2,7.1l-4.7-0.2c-2.3-0.1-4.2,1.5-4.6,3.7l-1.1,7.3c-0.3,2.2,1,4.4,3.2,5
			l4.8,1.4c0.3,2.5,0.9,5,1.8,7.4l-3.7,3.4c-1.7,1.5-1.9,4.1-0.6,5.9l4.3,5.9c1.3,1.8,3.8,2.4,5.8,1.3l4.4-2.5
			c2.1,1.7,4.3,3.1,6.7,4.2l-0.2,5.1c-0.1,2.3,1.5,4.2,3.7,4.6l7.3,1.1c2.2,0.3,4.4-1,5-3.2l1.3-4.7c2.8-0.3,5.6-0.9,8.2-1.9
			l3.3,3.6c1.5,1.7,4.1,1.9,5.9,0.6l5.9-4.3c1.8-1.3,2.4-3.8,1.3-5.8l-2.3-4.1c1.8-2.2,3.3-4.6,4.4-7.1l4.5,0.2
			c2.3,0.1,4.2-1.5,4.6-3.7l1.1-7.3c0.3-2.2-1-4.4-3.2-5l-4.3-1.2c-0.3-2.7-0.9-5.4-1.9-8l3.2-3
			C1982.7,634.1,1983,631.6,1981.6,629.7z M1944.7,664.2c-7.8-1.2-13.2-8.6-12-16.5c1.2-7.8,8.6-13.2,16.5-12
			c7.8,1.2,13.2,8.6,12,16.5C1959.9,660.1,1952.5,665.5,1944.7,664.2z"/>
	</g>
	<g>
		<path class="st9" d="M1842.8,667c-2.2-0.3-4.4,1.1-4.9,3.3l-1.1,4.4c-0.6,2.2,0.6,4.5,2.7,5.3l3.1,1.2c0.1,2.1,0.4,4.1,0.9,6.2
			l-2.7,2c-1.8,1.4-2.3,3.9-1.2,5.8l2.3,3.9c1.2,2,3.6,2.7,5.6,1.8l3.1-1.4c1.6,1.5,3.3,2.8,5.1,3.9l-0.5,3.4
			c-0.3,2.2,1.1,4.4,3.3,4.9l4.4,1.1c2.2,0.6,4.5-0.6,5.3-2.7l1.2-3.1c2.3,0,4.6-0.3,6.8-0.9l1.9,2.6c1.4,1.8,3.9,2.3,5.8,1.2
			l3.9-2.3c2-1.2,2.7-3.6,1.8-5.6l-1.3-2.9c1.6-1.6,3-3.4,4.1-5.4l2.9,0.4c2.2,0.3,4.4-1.1,4.9-3.3l1.1-4.4c0.6-2.2-0.6-4.5-2.7-5.3
			l-2.7-1.1c0-2.2-0.3-4.5-0.9-6.6l2.3-1.7c1.8-1.4,2.3-3.9,1.2-5.8l-2.3-3.9c-1.2-2-3.6-2.7-5.6-1.8l-2.5,1.1
			c-1.7-1.7-3.6-3.1-5.6-4.3l0.4-2.8c0.3-2.2-1.1-4.4-3.3-4.9l-4.4-1.1c-2.2-0.6-4.5,0.6-5.3,2.7l-1,2.6c-2.4,0-4.8,0.4-7.2,1.1
			l-1.7-2.3c-1.4-1.8-3.9-2.3-5.8-1.2l-3.9,2.3c-2,1.2-2.7,3.6-1.8,5.6l1.3,2.8c-1.5,1.6-2.9,3.5-4,5.4L1842.8,667z M1872.3,669.1
			c6.3,1.6,10,8,8.4,14.3c-1.6,6.3-8,10-14.3,8.4c-6.3-1.6-10-8-8.4-14.3C1859.6,671.2,1866,667.4,1872.3,669.1z"/>
	</g>
</g>
<g>
	<g>
		<path class="st16" d="M268.2,176.8h84.1c5,0,9.1,4.1,9.1,9.1v52.2c0,5-4.1,9.1-9.1,9.1h-58l-13.1,13.2c-0.6,0.6-1.2,0.9-2,0.9
			c-1.6,0-2.9-1.2-2.9-2.9v-11.2h-8.1c-5,0-9.1-4.1-9.1-9.1v-52.2C259.2,180.8,263.3,176.8,268.2,176.8z"/>
	</g>
	<g>
		<path class="st9" d="M429.5,148.3H317.1c-6.7,0-12.1,5.5-12.1,12.1v69.8c0,6.7,5.5,12.1,12.1,12.1h77.5l17.5,17.7
			c0.7,0.7,1.6,1.2,2.7,1.2c2.1,0,3.9-1.6,3.9-3.9v-15h10.8c6.7,0,12.1-5.5,12.1-12.1v-69.8C441.6,153.7,436.1,148.3,429.5,148.3z"
			/>
	</g>
	<g>
		<g>
			<circle class="st17" cx="334.7" cy="192.7" r="7.4"/>
		</g>
		<g>
			<circle class="st17" cx="373.3" cy="192.7" r="7.4"/>
		</g>
		<g>
			<circle class="st17" cx="412" cy="192.7" r="7.4"/>
		</g>
	</g>
</g>
<g>
	<path class="st7" d="M192.6,1512c0,0-42.4-59.9,108.5-56.4c150.9,3.4,140.2,30.2,284.9,24s357.2-24.7,280.8,53.7
		S227.6,1598.3,192.6,1512z"/>
	<path class="st8" d="M766.5,1203.5c-0.2-1.2-1.4-1.9-2.6-1.7c-1.2,0.2-2,1.4-1.7,2.5l11.5,59.6H539.3c-0.7,0-1.3,0.3-1.7,0.8
		l11.6-60.3c0.2-1.2-0.6-2.3-1.8-2.6c-1.2-0.2-2.3,0.6-2.5,1.7l-58.3,302.8c-0.2,1.2,0.6,2.3,1.7,2.5c0.1,0,0.3,0,0.4,0
		c1,0,1.9-0.7,2.1-1.8l46.3-240.4c0.3,0.9,1.1,1.5,2.1,1.5h235.3l46,238.9c0.2,1,1.1,1.8,2.1,1.8c0.1,0,0.3,0,0.4,0
		c1.2-0.2,2-1.4,1.7-2.5L766.5,1203.5z"/>
	<path class="st15" d="M365.9,955c0,0,7.5-25.3,7.5-37.6c0-8.9,7.9-18.1,14.1-23.6c11.8-10.4,27.5-14.1,42.8-11.6
		c9.3,1.5,22.4,4.5,28.2,12.5c7.5,10.2,14.6,24.2,10.4,37.1c-1.4,4.3-2.6,9.6-5.3,13.4c-0.3,0.4-0.9,0.8-1.1,1.3
		c-2.3,3.4,0.3,10.2,0.6,14c0.2,2.4,1.4,10.3-2,11.3c-4.8,1.4-2.7-2.4-4.8,1.4c-1.7,3.2-3.3,6.4-5.3,9.5c-2,3-5.2,5-6.3,8.4
		c-1.4,4.2-0.2,19.1-7.9,17.9c-8.9-1.4-21.5-19.8-32.1-13c-10.6,6.8-11.9,11.6-11.9,11.6L365.9,955z"/>
	<g>
		<path class="st10" d="M493.4,1192v2.1c0,2,1.7,3.7,3.7,3.7h192l-41.1-6.4L493.4,1192z"/>
		<g>
			<polygon class="st11" points="648.1,1191.4 693.5,1083.9 742.9,1076 689.1,1197.8 			"/>
			<path class="st10" d="M695.6,1087.3c-1.4,3-40.6,97.8-40.6,97.8l31.9,1.8l45.7-105.8L695.6,1087.3z"/>
			<path class="st11" d="M648,1191.4l-154.5,0.6l11.8,3.8c4,1.3,8.2,2,12.4,2h171.5L648,1191.4z"/>
			<polygon class="st10" points="628.3,1195.1 568.5,1195.1 589.4,1193 637.6,1193 			"/>
			<polygon class="st10" points="555.9,1195.1 551.7,1195.1 572.4,1193 580.3,1193 			"/>
		</g>
	</g>
	<path class="st18" d="M693.9,1197.8h24.4h135.4c-0.8,14.3-22.2,11.9-22.2,11.9H718.3h-24.4H454.4c0,0-21.4,2.4-22.2-11.9H693.9z"/>
	<path class="st8" d="M234.8,1284.2c0,0-1.4,15.6,5.8,17.3c7.1,1.7,34.1-4.9,33.1-17.3c-1-12.4-0.7-24-10.9-25.4
		c-10.2-1.4-28.1,21.5-28.1,21.5"/>
	<path class="st18" d="M440.7,1313.3v-0.2c0,0-0.5,0-1.5,0.1c-1-0.1-1.5-0.1-1.5-0.1v0.2c-19.1,1.5-122.1,16.6-120.7,160.2h8.3
		c3.6-5.5,1.4-143.2,113.9-148.6c112.5,5.5,110.3,143.1,113.9,148.6h8.3C562.8,1329.9,459.8,1314.9,440.7,1313.3z"/>
	<path class="st8" d="M350.2,1354.1v-0.2c0,0-0.5,0-1.5,0.1c-1-0.1-1.5-0.1-1.5-0.1v0.2c-19.1,1.5-122.1,16.6-120.7,160.2h8.3
		c3.6-5.5,1.4-143.2,113.9-148.6c112.5,5.5,110.3,143.1,113.9,148.6h8.3C472.3,1370.6,369.3,1355.6,350.2,1354.1z"/>
	<path class="st18" d="M221.9,1324.3c0,0-9.7,18.3,7.4,23.2s214,15.8,225.1,13.8c11.1-2,23.8-22.4,23.8-22.5s-252.3-14.4-252.3-14.4
		H221.9z"/>
	<g>
		<path class="st8" d="M187.2,1019.8c3.6,85.1,7.2,170.1,10.9,255.2c0.4,9.7,9.6,16.5,19,14.2c25.7-6.3,51-15.7,66.3-36.7
			c18-24.7,16.6-58.1,12.3-88.4c-6.1-43.6-16.7-86.8-35-126.8c-6.6-14.4-14.8-29-28.6-36.7c-17.2-9.6-32.4-1.6-44.8,10.8"/>
		<path class="st8" d="M486.5,1344.2c0,0-213.3-17.8-254.4-14.4c-41.1,3.4,51.5-69.1,95.9-79.2s208.2-13.5,199.4,4.5
			C518.7,1273.2,516.7,1336.3,486.5,1344.2z"/>
	</g>
	<path class="st15" d="M509.3,1149.7c1.5,0.2,44.1,6.6,53.7,8.1c9.6,1.4,29.4,17.9,33.6,20.8c4.2,3-7.7,10-14.8,5.5
		c-7.1-4.4-7.6-8.1-20.8-6.5s-26.5,7.4-36.2,3.4c-9.7-4.1-19-8.3-19-8.3l3-20"/>
	<path class="st15" d="M506.9,1166.6c1.5,0,44.6,0,54.3,0s31.8,13.3,36.4,15.6c4.6,2.3-6.1,11-13.8,7.7c-7.7-3.3-8.7-6.9-21.5-3.3
		s-25.1,11.3-35.3,8.7c-10.2-2.6-20-5.4-20-5.4v-20.2"/>
	<path class="st19" d="M577.5,1172.7c-6.8-3.3-13.8-6.1-18.3-6.1h-53.4l1.1-7.2l0.5-3c1.5,0.2,44.1,6.6,53.7,8.1
		C565.3,1165.1,571.5,1168.7,577.5,1172.7z"/>
	<path class="st15" d="M520.2,1449.4c0,1.3,0,16.4,0,17.4c0,1,24,13.5,26,13.8s3.6-16.9,3.6-16.9l2.9-20.3L520.2,1449.4z"/>
	<path class="st9" d="M519.6,1463.8c0,0-10.5,19.7-8.5,40.1c2,20.4,12.5,14.5,23,15.8c10.5,1.3,9.2-3.9,9.2-3.9
		c0.2,0.9,5.5,2.5,6.3,2.8c5.5,2.1,11.2,3.7,16.9,4.8c7.3,1.4,14.8,1.7,22.2,1.3c6.1-0.4,15.9-0.4,21.1-3.7c8.2-5.2,7-15.1-0.7-19.8
		c-15.1-9.2-37.7-5.7-45.2-17.5s-14.1-19.7-14.1-19.7S526.8,1467.7,519.6,1463.8z"/>
	<path class="st15" d="M464.2,1479.7c0,1.4,0,17.1,0,18.1c0,1,24.9,14,27,14.3c2,0.3,3.8-17.5,3.8-17.5l3-21.1L464.2,1479.7z"/>
	<path class="st20" d="M563.5,1340.4c0,23.9-7.8,114.6-9.1,116.7c-0.6,1-7,1.2-14.3,0.9c-8.4-0.3-17.9-1.2-21.2-2.3
		c-1.2-0.4-1.9-3.9-2.3-9.1c-0.1-0.8-0.1-1.6-0.2-2.4c-1.1-19.7,1.3-58.4,0.6-62.3c-0.1-0.6-0.3-0.4-0.6,0.8
		c-2.7,11.6-9.8,90.7-13.9,99.6c-1,2.2-3.2,3.7-5.9,4.6c-8.1,2.7-21.8,0.7-28.9,0.2c-9.6-0.7-7.8-7.8-7.1-17.4
		c0.1-0.8,0.2-1.9,0.3-3.2c1.2-14,5.1-54.6-0.1-78c-0.1-0.4-0.2-0.7-0.2-1.1c-6.1-25.3-1.4-66.2,0-74.7c1.4-8.5-32.1-9.2-55.5-3.1
		c-23.4,6.1-120,2.7-128.1-6.8c-4.5-5.3-6.3-22.5-7.1-36.9c-0.6-11.5-0.5-26-0.5-26s0,4.8,4.1,2.8c4.1-2,110.6-32.1,135.9-35.5
		c25.3-3.4,88.8,9.6,113.3,13.7c24.6,4.1,34.1,15.7,36.2,28S563.5,1316.5,563.5,1340.4z"/>
	<path class="st21" d="M367.5,950c0,0-3.6-32.3,0-41c3.6-8.7,3.1-9.2,9.9-18.9c6.8-9.7,13.5-22.5,33.8-23
		c20.3-0.5,20.8,4.6,28.6,4.6c7.8,0,35.3,9,39.5,19.8c4.2,10.8,2.6,27.2-4.2,30.7s-22.3-10.1-30.6-14.2s-6.2,1.5-5.7,6.1
		c0.5,4.6-3.1,14.9-6.8,16.4s-8.9-0.5-8.3,4.6c0.6,5.1-6.7,21.5-6.7,27.7c0,6.1,6.2,19.5,10.9,16.9c4.7-2.6,14-11.2,20.8-10.2
		c6.7,0.9,8.7,2,8.7,2s-1,11.7-6.9,12c0,0-11.8-5-15-0.5c0,0,5.2,4.8,10.4,5.5c5.2,0.7,2.4,37.9-20.1,25.9
		c-22.5-11.9-33.6-31.4-26.3-43.7c7.3-12.3,10-11.9,12.1-17.8c2.1-5.8,5.5-18.8,0.3-22.2c-5.2-3.4-13.5-7.2-18,3.1
		c-4.5,10.2-9.4,24.2-19.1,20.5C365.1,950.5,367.5,950,367.5,950z"/>
	<path class="st9" d="M315,1097.9c-3-6.2-4.9-10.1-5-10.4C312.2,1088.7,313.8,1092.5,315,1097.9z"/>
	<path class="st16" d="M519.8,1151c-4.4-1.4-28.4-9.1-37.9-13.8c-10.5-5.1-29.8-11.6-38-22.4c-8.2-10.8-13.3-4.4-16.9-17
		c-3.6-12.5-16.6-54.3-18.9-59.1c0-0.1,0-0.1-0.1-0.1c-1-1.9-5.1-6.8-9.3-11.4c-2.2-2.5-4.5-4.9-6.2-6.8
		c-9.7-17.1-38.7-52.1-45.5-48.3c0,0-47.6,21.5-57.9,74.8c-10.2,53.3-30.1,195.2-17.8,200.3c3.2,1.4,14.1,3.9,28.5,6.8
		c40,8.2,106.4,14.1,110.2,12.6c5.1-2,7.7-58.9,8.2-66.6c0-0.3,0-0.6,0-1.1c0-0.5,0-1.2,0-1.9c16.3,0.8,90.1,4.5,93.1,3.3
		c2.6-1,0.1-22.1-1.9-33.8c-0.6-3.8-1.2-6.6-1.5-7.5C508.2,1157.1,513.9,1149.5,519.8,1151z"/>
	<path class="st17" d="M363.9,951.6c0,0-18.4,20.5-16.9,20.5s43,27.1,44.6,58.9l14.9-17.4C406.4,1013.5,376.2,955.6,363.9,951.6z"/>
	<path class="st9" d="M416.1,1233c-1.4,16.2-3.3,32.4-6,33.5c-3.8,1.5-71.6-4.2-111.6-12.9c0.2-6.9,2.1-18.6,3.6-24.2
		c4.1-15.7-12.3-42.3-10.2-50.5s21.2,5.5,23.2-8.9c1.6-11.3,4.3-52.3,0.1-72.2c11.2,22.7,38.3,74.7,53.2,79
		c19.1,5.5,46.4,21.8,49.8,21.8c0.1,0,0.1,0,0.2,0.1c0,0.5,0,0.9,0,1.1c-0.2,2.8-0.6,12.1-1.4,22.8L416.1,1233z"/>
	<path class="st9" d="M427,1116.4c3.6,12.7,8.7,6.3,16.9,17c7.3,9.6,53.1,20.4,64,25.3c-23.3-3.6-82-12.8-84.3-13.1
		c-3.9-0.5-28-113.5-24.8-118.4c4.2,4.7,2.9,10.5,3.9,12.4"/>
	<path class="st22" d="M496.5,1486.9c-8.1,2.7-21.8,0.7-28.9,0.2c-9.6-0.7-7.8-7.8-7.1-17.4c0.1-0.8,0.2-1.9,0.3-3.2
		c1.2-14,5.1-54.6-0.1-78c-0.1-0.4-0.2-0.7-0.2-1.1c-6.1-25.3-1.4-66.2,0-74.7c1.4-8.5-32.1-9.2-55.5-3.1
		c-23.4,6.1-120,2.7-128.1-6.8c-4.5-5.3-6.3-22.5-7.1-36.9c0.1,2.2,4.1,7.1,5.3,9c3.5,5.9,7.6,11,12.6,15.7
		c15.9,14.8,44.8,11.4,65,11.2c32.1-0.3,64.1-1.3,96.1-1.3c18.9,0,34.1,10.9,37.6,10.9c3.6,0-3.6,7.7-3.6,11.3s6.4,3.6,7.3,5.1
		c0.9,1.5-14.5,2-11.4,13.8c3.1,11.8,6.7,18.4,3.1,39.4c-3.6,21-9.2,79.2-4.1,90C481.2,1478.6,495,1481.6,496.5,1486.9z"/>
	<path class="st22" d="M540.1,1458c-8.4-0.3-17.9-1.2-21.2-2.3c-1.2-0.4-1.9-3.9-2.3-9.1c0.1-1.1,0.1-2-0.2-2.4
		c-1.1-19.7,1.3-58.4,0.6-62.3c3-35.8,9.1-98,9.1-99.5c0,0,5.1,46.6,5.6,67.6c0.5,21-3.1,73.7,6.1,99.3
		C539.1,1452.9,539.8,1455.7,540.1,1458z"/>
	<path class="st22" d="M526.7,1278.2c0-6.1-4.2-11.3-8.8-15.2c-14.7-12.2-36.7-15-54.8-19.3c-3.3-0.8-47.2-9.9-47.1-10.7
		c0.3-3.5,0.5-7,0.8-10.3c18.6,3.5,63.9,12.6,85.3,21.7C516.8,1250.7,526.3,1262.2,526.7,1278.2z"/>
	<path class="st9" d="M561.5,1549.8c-1,1.5-2.3,2.9-4.2,4.1c-5.4,3.4-15.6,3.5-21.9,3.9c-7.7,0.5-15.5,0.1-23.1-1.3
		c-6-1.1-11.9-2.8-17.6-5c-0.8-0.3-6.3-1.9-6.5-2.9c0,0,1.4,5.5-9.6,4.1c-10.9-1.4-21.8,4.8-23.9-16.4c-0.2-1.9-0.3-3.8-0.3-5.7
		c0.1-19,9.1-36,9.1-36c7.5,4.1,31.4,0,31.4,0s6.8,8.2,14.6,20.5c7.8,12.3,31.2,8.6,46.9,18.2C562.8,1537.1,565,1544.3,561.5,1549.8
		z"/>
	<path class="st21" d="M561.5,1549.8c-1,1.5-2.3,2.9-4.2,4.1c-5.4,3.4-15.6,3.5-21.9,3.9c-7.7,0.5-15.5,0.1-23.1-1.3
		c-6-1.1-11.9-2.8-17.6-5c-0.8-0.3-6.3-1.9-6.5-2.9c0,0,1.4,5.5-9.6,4.1c-10.9-1.4-21.8,4.8-23.9-16.4c-0.2-1.9-0.3-3.8-0.3-5.7
		c9.6,3.7,54.2,20.5,68.5,21.1C536.6,1552.3,553.3,1553.1,561.5,1549.8z"/>
	<path class="st21" d="M613.8,1516.9c-0.9,1.5-2.3,2.8-4,3.9c-5.2,3.3-15,3.3-21.1,3.7c-7.4,0.5-14.9,0.1-22.2-1.3
		c-5.8-1.1-11.5-2.7-16.9-4.8c-0.8-0.3-6.1-1.8-6.3-2.8c0,0,1.3,5.3-9.2,3.9c-10.5-1.3-21,4.6-23-15.8c-0.2-1.8-0.3-3.7-0.2-5.5
		c9.2,3.5,52.2,19.8,65.9,20.4C589.9,1519.4,605.9,1520.2,613.8,1516.9z"/>
</g>
<g>
	<g>
		<path class="st8" d="M1871.3,1567.8L1842,1390c-0.1-0.6-0.6-0.9-1.2-0.9c-0.6,0.1-0.9,0.6-0.9,1.2l29.3,177.5H1871.3z"/>
	</g>
</g>
<g>
	<g>
		<path class="st8" d="M1766.7,1567.8l29.3-177.5c0.1-0.6-0.3-1.1-0.9-1.2c-0.6-0.1-1.1,0.3-1.2,0.9l-29.3,177.9H1766.7z"/>
	</g>
</g>
<g>
	<g>
		<path class="st18" d="M1803.2,1567.8l0.8-180.7c0-0.6-0.5-1-1-1h0c-0.6,0-1,0.5-1,1l-0.8,180.7H1803.2z"/>
	</g>
</g>
<g>
	<g>
		<path class="st18" d="M1836.3,1567.8l0.8-176.1c0-0.6-0.5-1-1-1h0c-0.6,0-1,0.5-1,1l-0.8,176.1H1836.3z"/>
	</g>
</g>
<g>
	<path class="st18" d="M1903.8,1371.8c0,4.2-5.1,8.1-13.8,11.3c-11,4.1-27.8,7.2-47.7,8.6c-0.7,0.1-1.4,0.1-2.1,0.1
		c-1,0.1-2.1,0.1-3.2,0.2c-0.7,0-1.4,0.1-2.1,0.1c-5.6,0.3-11.5,0.4-17.5,0.4c-4.6,0-9.1-0.1-13.5-0.3c-0.7,0-1.4,0-2.1-0.1
		c-2.1-0.1-4.1-0.2-6.2-0.3c-0.7,0-1.4-0.1-2.1-0.1c-20.8-1.4-38.3-4.7-49.5-9.1c-8.2-3.2-12.9-6.9-12.9-11c0-0.2,0-0.4,0-0.6
		c0.1-0.8,0.3-1.5,0.8-2.3c2.3-2.8,9.9-5.3,21-7.3c15.8-2.9,38.9-4.7,64.5-4.7c27.6,0,52.2,2.1,68,5.3c9.2,1.9,15.5,4.2,17.5,6.7
		c0.4,0.7,0.7,1.5,0.8,2.3C1903.8,1371.4,1903.8,1371.6,1903.8,1371.8z"/>
	<path class="st8" d="M1903.8,1370.8c0,0.1,0,0.3,0,0.4c-0.4,2.5-4.9,4.8-12.5,6.8c-15.1,4-42.5,6.7-73.8,6.7
		c-31.1,0-58.4-2.7-73.6-6.7c-7.7-2-12.2-4.4-12.7-6.9c0-0.1,0-0.3,0-0.4c0-0.6,0.3-1.3,0.8-1.9c2.3-2.8,9.9-5.3,21-7.3
		c15.8-2.9,38.9-4.7,64.5-4.7c27.6,0,52.2,2.1,68,5.3c9.2,1.9,15.5,4.2,17.5,6.7C1903.5,1369.6,1903.8,1370.2,1903.8,1370.8z"/>
</g>
<g>
	<path class="st8" d="M1861.1,1515.8c-0.2,0-0.4-0.1-0.5-0.2l-76.7-62.3c-0.4-0.3-0.4-0.8-0.1-1.2c0.3-0.4,0.8-0.4,1.2-0.1
		l76.7,62.3c0.4,0.3,0.4,0.8,0.1,1.2C1861.6,1515.7,1861.3,1515.8,1861.1,1515.8z"/>
</g>
<g>
	<path class="st8" d="M1774.4,1515.8c-0.2,0-0.5-0.1-0.7-0.3c-0.3-0.4-0.2-0.9,0.1-1.2l76.7-62.3c0.4-0.3,0.9-0.2,1.2,0.1
		c0.3,0.4,0.2,0.9-0.1,1.2l-76.7,62.3C1774.8,1515.8,1774.6,1515.8,1774.4,1515.8z"/>
</g>
<path class="st23" d="M1891.2,1378c-15.1,4-42.5,6.7-73.8,6.7c-31.1,0-58.4-2.7-73.6-6.7c0.3-5.8,2.8-11.6,9.1-16.5
	c15.8-2.9,38.9-4.7,64.5-4.7c27.6,0,52.2,2.1,68,5.3C1888.5,1366.7,1891.5,1372.4,1891.2,1378z"/>
<path class="st15" d="M1816,1045.9c0.2,3.5-1.6,7.2-4.2,10.9c-4.7,6.8-11.8,13.5-13.4,18.2c-2.4,7.3,4,21.6,4,21.6
	s-3,14.7-11.5,18.9c-0.5,0.3-1.1,0.5-1.7,0.7c-9.6,2.9-33.4-2.6-30.1-12.7c1-3.1,1.2-6.4,1-9.6c-0.6-7.7-1-14.3-1-14.3
	c-7.3,5.7-19,3.9-21.6,1.6c-2.7-2.2-7.5-7.7-12.2-17.1c-4.7-9.4-4.3-17.9-4.1-21.8c0.2-3.9,1.2-3.7,0-9.2c-1.2-5.5-1-19,0-19.8
	c0.8-4.3,1.9-8.5,3.1-12.7c1.3-4.2,2.4-8.5,4.6-12.3c2.5-4.3,5.5-5.8,10.4-6.3c14.9-1.5,32.3-5.7,46.4,1.4
	c13.2,5.9,19.1,27.8,25.3,31.2C1825.8,1022.6,1815.4,1036.1,1816,1045.9z"/>
<path class="st24" d="M1802.5,1096.6c0,0-3,14.7-11.5,19c-0.5,0.3-1.1,0.5-1.7,0.7c-0.2-0.5-0.1-1.1,0.5-1.9c7.3-9.5,5.3-9,3.1-29
	c-2.1-19.7,18-27.9,19-28.6c-4.7,6.8-11.8,13.5-13.4,18.2C1796.1,1082.3,1802.5,1096.6,1802.5,1096.6z"/>
<path class="st25" d="M1796.4,976.5c0,0,6-11.7,20-10c14,1.7,23.9,20.8,21.9,29.7c-2,8.8-8.9,15.7-20.9,8.8s-21-26.1-21-26.1V976.5z
	"/>
<path class="st25" d="M1723,991.9c0,0,9.9-31.6,49.5-24.2c39.6,7.4,50.2,26.5,52.7,42.8c2.6,16.2-9.1,33.1-9.1,33.1
	s-1.7-21.9-18.1-7.7c-8.5,7.4-17.8-12.9-19.1-20.8C1777.7,1007,1729.1,986.2,1723,991.9z"/>
<path class="st26" d="M1718.6,1016.4c0,0-8.8-33.9,25.2-37.3c33.9-3.4,35.3,37.6,35.3,37.6l-22.2-0.6l-2.6-13.4l-0.6,13.6l-19.6,0.1
	l-2-7.4l-0.6,7.1l-2.3-3.1l-0.6,3.1L1718.6,1016.4z"/>
<path class="st15" d="M1666,1096.8C1666,1096.9,1666,1096.9,1666,1096.8c-0.2,0.6-0.4,1.1-0.6,1.6c-0.5,1.2-0.8,2.3-1.1,3.3
	c-2,6.7-0.9,11.1-0.7,14.2c0.3,3.6-14.7,2.8-14.7,2.8l-0.9-3.9c0,0-2.4-3.9-5.8-8.2c-1.5-2-3.2-4-5-5.7c0,0,0,0,0,0
	c-6-6-7.3-14.9-11-22.1c-3.4-6.7-10.8-14.3-4.1-21.8c6.7-7.5,16.6,3.2,20.7,8.4c1.1,1.3,8.5,14.9,10.2,12.7
	c2.8-3.6,2.2-15.9,6.1-18.4c3.9-2.5,7.5-1.1,5.8,3.9c-1.7,5-3.6,8.9-1.9,13.4c1.1,3,3.4,7.8,3.7,13.3c0,0,0,0,0,0
	C1666.9,1092.4,1666.7,1094.6,1666,1096.8z"/>
<path class="st24" d="M1664.3,1101.8c-2,6.7-0.9,11.1-0.7,14.2c0.3,3.6-14.7,2.8-14.7,2.8l-0.9-3.9c0,0-2.4-3.9-5.8-8.2
	c3,2.2,7.4,3.7,13.4,2.1C1660,1107.7,1662.7,1105,1664.3,1101.8z"/>
<g>
	<path class="st15" d="M1593.5,1565.2c-2.4,2.1-8,17.5-13.9,31.1c-4.9,11.1-10,21-13.9,21.6c-7.2,1.2-14-8.4-19.1-12.2
		c-10.4-7.8-23.1-9.6-34.3-15.7c-7.7-4.1-32.6-25.5-13-29.9c6.7-1.5,13.2-0.6,19.4,1.4c8.1,2.6,15.8,7,23.4,10.5
		c3.7,1.7,7.5,3.9,11.4,1.6c2.5-1.4,8-16.6,8.3-16.6C1561.9,1557.1,1597.8,1561.4,1593.5,1565.2z"/>
	<path class="st22" d="M1579.6,1596.3c-4.9,11.1-10,21-13.9,21.6c-7.2,1.2-14-8.4-19.1-12.2c-10.4-7.8-23.1-9.6-34.3-15.7
		c-7.7-4.1-32.6-25.5-13-29.9c6.7-1.5,13.2-0.6,19.4,1.4c-1.9,16.5,14.4,18.5,34,29C1565.3,1597.3,1574.3,1597.3,1579.6,1596.3z"/>
</g>
<g>
	<path class="st15" d="M1771.8,1615.6c-5,5-15.7,1.3-21.8,1.2c-12.5-0.3-23.5,5.4-35.7,7c-8,1-37.3-1.5-28.4-14.4
		c0.4-0.6,0.9-1.2,1.4-1.7c4.4-5,10-7.9,16-9.8c7.8-2.5,16.4-3.4,24.3-5c3.8-0.7,8-1.2,9.9-5.1c1.2-2.5-3.1-17.5-2.8-17.7
		c0,0,30.6-16.8,29.4-11.4c-0.7,3,3.6,18.2,6.5,32.2v0c0,0,0,0.1,0,0.1C1772.9,1602.3,1774.4,1612.9,1771.8,1615.6z"/>
	<path class="st22" d="M1771.8,1615.6c-5,5-15.7,1.3-21.8,1.2c-12.5-0.3-23.5,5.4-35.7,7c-8,1-37.3-1.5-28.4-14.4
		c0.4-0.6,0.9-1.2,1.4-1.7c4.4-5,10-7.9,16-9.8c7.7,14,21.7,6.4,43,3.6c13.6-1.8,20.6-6.9,24.2-10.6c0,0,0,0.1,0,0.1
		C1772.9,1602.3,1774.4,1612.9,1771.8,1615.6z"/>
</g>
<path class="st20" d="M1883.2,1350c-14.7,26.1-57,23.4-82.4,27.7c-2.2,0.4-10.2,1.4-20.1,2.9c-10.8,1.6-23.8,3.9-34.5,6.6
	c-4,1-7.7,2.1-10.8,3.3c-5.9,2.2-9.5,4.7-9.2,7.3c1.6,12.2,55.4,183.4,55.4,188.3c0,2.6-15.7,3.6-30.4,2.6c-12.9-0.9-25-3.3-25-7.5
	c0-9-17.9-69.6-29.3-92.7c-11.1-22.4-26.7-81.2-27.7-84.8c0,0,0,0,0-0.1c0-0.1,0-0.1,0-0.1l0,0l-77.4,172c0,0-12.9-2.8-25.5-6.9
	c-11.9-3.8-23.4-8.8-23.4-13.5c0-9.8,17.9-36.1,25.3-52.7c7.3-16.6,43.2-129.7,59.5-145.3c16.3-15.6,90.5-51.4,106-57.9
	c15.5-6.5,25.9-12.2,27.2-48.9l18.7-1.1l21.7-1.3l35.5-2.2l19.4-1.2c0,0,0.6,23.8,13.6,40.1
	C1882.7,1300.6,1894.3,1330.4,1883.2,1350z"/>
<path class="st22" d="M1776,1306.3l-14.6,4.4c4.8-1.7,11.6-4.9,16.3-9.9c4.6-5-1.3-30.8-7-51.7l21.7-1.3c0,0.1,0,0.3,0,0.4
	c0.7,9.3,0.6,24.3,0.4,35.9C1792.6,1294.4,1785.8,1303.4,1776,1306.3z"/>
<path class="st22" d="M1883.2,1350c-14.7,26.1-57,23.4-82.4,27.7c-2.2,0.4-10.2,1.4-20.1,2.9c5.2-3.3,21.8-5.5,61.3-30.9
	c45.7-29.3-6.5-95.4-6.5-101.9c0,0,0.5-0.8,1.3-2.2l19.4-1.2c0,0,0.6,23.8,13.6,40.1C1882.7,1300.6,1894.3,1330.4,1883.2,1350z"/>
<path class="st22" d="M1660.7,1361.6c-0.1,0.5-0.5,2.2-1.1,4.9C1660,1363.8,1660.6,1362,1660.7,1361.6z"/>
<path class="st22" d="M1669.2,1403.5l-77.4,172c0,0-12.9-2.8-25.5-6.9c-2-4.3,0.1-9,5.8-18.3c13.4-22,39.7-23.6,56.9-71.4
	c14.4-40.1,27-95.6,30.7-112.5C1658.7,1373.6,1658.8,1387.6,1669.2,1403.5z"/>
<path class="st22" d="M1669.3,1403.7L1669.3,1403.7C1669.3,1403.7,1669.3,1403.6,1669.3,1403.7
	C1669.3,1403.6,1669.3,1403.6,1669.3,1403.7z"/>
<path class="st22" d="M1781.8,1586.1c0,4.7-27.2,2.7-30.3,2.6c5.5-0.8,8.2-13.1,9.6-17.3c3-9.6,4.9-20.1,3.9-30.2
	c-1.1-10.4-4.8-20.4-7.6-30.4c-8.6-31.6-19-62.8-29.8-93.7c-0.2-0.5-3.1-8.2-2.9-8.3c0,0-8.1,4.9-4.1-1.6c4.1-6.5,0.8-6.9-9-7.3
	c-9.8-0.4-20-2.8-7.8-5.3s17.5,3.3,13.9,0c-3.7-3.3-11.4-11,2-5.7c5.7,2.2,11.2,2.3,15.7,1.7c-5.9,2.2-9.5,4.7-9.2,7.3
	C1728,1410,1781.8,1581.2,1781.8,1586.1z"/>
<path class="st27" d="M1866.9,1154.5c-3.3,26.5-2,90.1-11,94.2c-9,4.1-135.3,2-137.8,0c-2.1-1.8-0.6-12.4-0.1-15.2
	c0.1-0.4,0.4-0.8,0.8-0.9l29.9-10.4c0,0-0.1-0.1-0.3-0.4c-2.2-2.8-16.9-21.6-16.9-25.8c0,0-30.2,58.5-52.2,54.9
	c-22-3.6-34.6-136.4-34.6-136.4s20.4-6.9,22.8-2.1c2.4,4.9,20.8,74.2,20.8,74.2s15.3-32.1,26.9-50.2c3.5-5.5,6.7-9.7,9-11.3
	c9.8-6.9,35.3-22.8,35.3-22.8s0,0,0,0c0.1,0.1,0.8,0.6,1.9,1.4c0,0,0,0,0,0c0.2,0.1,0.4,0.3,0.7,0.4c5.9,3.4,21.4,9.3,40.3-7.5
	c0,0,9.3,2.3,20,5.3c10,2.8,21.2,6.1,27.5,8.7c0,0,0,0,0,0c1.6,0.7,3,1.3,3.8,1.8C1861.6,1117.4,1870.2,1128,1866.9,1154.5z"/>
<path class="st28" d="M1715.3,1136.5c-0.9,4.3-2.5,9.9-4.4,18c-4,17.3-17.9,52.6-17.9,45.2c0-7.3-4.6-13-4.6-13
	S1703.7,1154.6,1715.3,1136.5z"/>
<path class="st28" d="M1748.7,1222.1c0,0,65.7-8.2,75.9-9.8c0,0,1.6-36.6,5.7-43.8c0,0-7.9,23.9-28.5,39.3
	C1789.2,1217.3,1771.9,1220,1748.7,1222.1z"/>
<path class="st28" d="M1748.4,1221.8c-2.2-2.8-16.8-21.6-16.8-25.8c0,0,10.4,15.5,24.6,16.7
	C1767.7,1213.7,1759.7,1220.1,1748.4,1221.8z"/>
<path class="st28" d="M1866.9,1154.5c-3.3,26.5-2,90.1-11,94.2c-9,4.1-135.3,2-137.8,0c0,0,111.8,1.6,123.6-9.4
	c11.8-11,20-42,19.6-61.1c-0.4-19.2,4-46.9-11.2-67.5c1.7,0.7,2.9,1.3,3.8,1.8C1861.6,1117.4,1870.2,1128,1866.9,1154.5z"/>
<path class="st28" d="M1822.5,1101.9c-7.4,6.4-29,15.2-43,11.6c-15.2-3.9-18-9.4-18.1-9.8c0,0,0,0,0,0c0.1,0.1,0.3,0.2,0.7,0.4
	c5.9,3.4,21.4,9.3,40.3-7.5C1802.5,1096.6,1811.8,1098.9,1822.5,1101.9z"/>
<path class="st15" d="M1720.2,1249c-2.8,0.7-6.8,1.7-10.9,2.7c-5.7,1.3-12.3-1.4-19.2-3.9c-2.3-0.8-4.6-1.6-6.9-2.2
	c-7.2-1.9-9.3-0.9-12.5,0.7c-1,0.5-2.1,1.1-3.4,1.6c-4.8,2-11.3-2.1-11-4.4c0-0.4,0.3-0.7,0.8-1c1.4-0.6,4.7-2.5,8.8-4.5
	c6.1-3,13.8-6.4,18.1-6.4c3.7,0,14.1,0.6,23.3,1.1c4.1,0.2,8,0.5,11,0.7c-0.2,1.3-0.7,4.2-0.9,7.2c-0.3,3.5-0.2,7,1,8
	C1718.6,1248.7,1719.2,1248.9,1720.2,1249z"/>
<path class="st24" d="M1720.2,1249c-2.8,0.7-6.8,1.7-10.9,2.7c-5.7,1.3-12.3-1.4-19.2-3.9c-2.3-0.8-4.6-1.6-6.9-2.2
	c-7.2-1.9-9.3-0.9-12.5,0.7c-1,0.5-2.1,1.1-3.4,1.6c-4.8,2-11.3-2.1-11-4.4c1.4,1.5,3.7,2.8,9.1,0.9c7.6-2.6,10.5-5.4,19.7-1.9
	c9.2,3.5,23.6,5.1,30.3-0.7c0.6-0.6,1.3-1,1.9-1.2c-0.3,3.5-0.2,7,1,8C1718.6,1248.7,1719.2,1248.9,1720.2,1249z"/>
<path class="st8" d="M1666,1096.8c0.5-2.3,0.7-4.6,0.8-6.5C1666.9,1092.4,1666.7,1094.6,1666,1096.8z"/>
<path class="st26" d="M1830.7,1006.9L1830.7,1006.9c-1.7,0.8-3.7,1.1-6,0.8c-2.4-11.5-9.3-23.9-27.6-32.5c0.7-1,1.9-2.6,3.6-4.1
	C1813.9,977.7,1830.4,989.3,1830.7,1006.9z"/>
<path class="st24" d="M1782.2,1069.3c-3.9,4.2-14.9,17.1-22.1,24.7c-0.6-7.7-1-14.3-1-14.3s21.8-10,23.2-18.3
	c1.4-8.4,1.2-10.2,1.2-10.2S1787.5,1063.6,1782.2,1069.3z"/>
<g>
	<path class="st17" d="M1723,1050.1c-7.3,0-13.3-6-13.3-13.3c0-7.3,6-13.3,13.3-13.3c7.3,0,13.3,6,13.3,13.3
		C1736.3,1044.1,1730.4,1050.1,1723,1050.1z M1723,1024.6c-6.7,0-12.1,5.5-12.1,12.1c0,6.7,5.5,12.2,12.1,12.2
		c6.7,0,12.2-5.5,12.2-12.2C1735.2,1030.1,1729.7,1024.6,1723,1024.6z"/>
</g>
<g>
	<path class="st17" d="M1756.2,1050.9c-7.8,0-14.1-6.3-14.1-14.1s6.3-14.1,14.1-14.1c7.8,0,14.1,6.3,14.1,14.1
		S1764,1050.9,1756.2,1050.9z M1756.2,1023.9c-7.1,0-12.9,5.8-12.9,12.9c0,7.1,5.8,12.9,12.9,12.9c7.1,0,12.9-5.8,12.9-12.9
		C1769.1,1029.6,1763.3,1023.9,1756.2,1023.9z"/>
</g>
<path class="st18" d="M1560.2,1250.3h-25.1h-169.3c0.8,14.7,22.8,12.2,22.8,12.2h146.5h25.1h230.9c0,0,22,2.4,22.8-12.2H1560.2z"/>
<g>
	<path class="st15" d="M1291.3,706.8c-4.9-13.6-15.9-23.5-29.4-28.3c-8.2-2.9-20.1-6.3-28.3-2.4c-10.5,4.9-22.5,13.1-24.8,25.3
		c-0.8,4.1-2.1,8.9-1.6,13.1c0.1,0.5,0.3,1.1,0.4,1.5c0.3,3.8-4.7,8.1-6.7,11c-1.2,1.8-5.7,7.7-3.4,10c3.3,3.2,3.3-0.7,3.3,3.2
		c0,3.3-0.2,6.7,0.1,10c0.3,3.3,2,6.3,1.3,9.6c-0.8,4-8.3,15.5-1.6,18c7.8,2.8,26.1-6.5,31.6,3.7c5.5,10.2,4.5,14.7,4.5,14.7l4-2.6
		c5,7.3,13.4,14.2,15.3,14.2c3.3,0,26.4-10.4,26.1-17.7c-0.3-9.1,2.3-19.6,3.6-28.8c1.1-8.3,1.7-17,4.6-24.9c0.5-1.5,1.2-3,1.9-4.4
		C1296.2,724.9,1293.9,713.9,1291.3,706.8z"/>
	<path class="st15" d="M1036.8,718.7c0,0.1,0,0.3,0,0.4c-0.4,12.6,8.6,21,11.3,13.6c0.9-2.3,1.5-4.8,2.2-6.9c1.3-4.6,2.4-7.8,4-5.4
		c0.8,1.2,0.7,4,0.3,7.7v0c-0.8,6.9-2.6,16.8-1.2,23.9c1.9,9.6,23.4,39.1,28.3,45.8c0.7,0.9,1,1.4,1,1.4l-26.8,37.6
		c0,0-1.6-8.1-4-18.9c-4.2-19.1-10.9-46.4-15.6-51.3c-7.3-7.7-19-22.7-19.4-38.5c-0.4-15.8,3.6-20.2,11.2-25.8
		c6.1-4.4,8.2,0.9,8.6,9.6"/>
	<path class="st22" d="M1237.1,1436c0,0,18.4,31.9,18.4,37.7s-28.3,20-33.3,19.1s-4.5-10.6-10-6.7c-5.7,4.1-7.3,12.5-34.5,15.8
		c-8.6,1.1-20-3.1-21.5-10.5c-0.6-3.1,0.8-4.6,5.3-8.5c7.1-6.2,16.8-6,25-11c5-3,14.4-10.2,12.9-17.2
		C1197.7,1447.4,1232.1,1439.3,1237.1,1436z"/>
	<path class="st22" d="M1313,1442.1c0,2.5,7.5,30.8,6.7,35.8s-32.6,5.3-32.6,2.8s-0.3-3.6-6.9-3.6s-27.1,9.5-38.7,6.8
		c-11.7-2.6-35-6.8-22.5-13.5c12.5-6.7,30.8-6.7,36.6-12.5s12-19.1,12-19.1L1313,1442.1z"/>
	<path class="st29" d="M1325.6,1120.6c-6.7,31.1-13.1,7.8-6.6,77.7c6.6,69.9-10.1,74.4-7.9,109.9c2.2,35.5,11.1,59.9,7.8,88.8
		c-3.3,28.9,0.7,43.3-8,45.5c-7.8,2-37.3,12-45.6,0.4c-0.9-1.3-1.6-2.9-1.9-4.8c-1-5.8-2.1-14.3-3.3-23.9
		c-2.6-22.1-5.5-49.9-7.8-63.8c-3.3-19.9-13.3-82.1-13.3-99.9V1177c0-2.7,0-4.3,0-4.3s-26.6,72.1-32.2,95.5
		c-0.6,2.6-0.9,5.3-0.9,8.3c0,0.6,0,1.3,0,1.9c0,0.5,0,1,0.1,1.5c0,0,0,0,0,0c0,0.2,0,0.4,0,0.7c0,0.5,0.1,1.1,0.1,1.7c0,0,0,0,0,0
		c0.1,0.7,0.1,1.3,0.2,2c0.1,0.7,0.2,1.3,0.3,2c0.1,0.8,0.3,1.7,0.4,2.5c0.1,0.5,0.2,1,0.3,1.4c2,10.2,5.7,21.5,9.4,33.2
		c0.3,1,0.6,2,1,3c0.2,0.7,0.5,1.4,0.7,2.1c0.4,1.3,0.8,2.6,1.2,3.8c0.3,1,0.6,2,0.9,3c0,0.1,0.1,0.2,0.1,0.3
		c0.3,0.8,0.5,1.6,0.8,2.5c0,0.1,0.1,0.1,0.1,0.2c0.4,1.5,0.9,3,1.3,4.4c0,0.1,0,0.2,0.1,0.3c0.5,1.6,0.9,3.3,1.3,4.9
		c0.2,0.7,0.4,1.5,0.6,2.2c0,0.1,0,0.1,0.1,0.2c0.2,0.7,0.3,1.3,0.5,2c0.2,0.7,0.3,1.3,0.5,2c0.1,0.7,0.3,1.3,0.4,2
		c0.4,2,0.8,3.9,1.1,5.8c0.1,0.5,0.2,1,0.3,1.6c0.1,0.7,0.2,1.5,0.3,2.2c4.4,33.3,4.4,28.9,11.1,42.2c6.7,13.3,8.9,30,3.3,31.1
		c-0.2,0.1-0.5,0.1-0.8,0.2c-0.1,0-0.3,0.1-0.4,0.1c-0.4,0.1-0.9,0.3-1.4,0.4c-0.5,0.2-1.1,0.4-1.6,0.6c-0.4,0.1-0.8,0.3-1.1,0.5
		c-0.3,0.1-0.6,0.3-1,0.4c-0.4,0.1-0.8,0.3-1.1,0.5c-0.3,0.1-0.6,0.2-0.9,0.4c-0.1,0-0.2,0.1-0.3,0.1c-0.6,0.3-1.2,0.5-1.9,0.8
		c-0.6,0.2-1.2,0.5-1.8,0.7c-1.3,0.5-2.5,1-3.8,1.5c-0.4,0.2-0.8,0.3-1.2,0.5c-4.1,1.6-7.9,2.7-10.5,2.6
		c-6.7-0.4-16.6,11.8-22.2-4.8c-5.5-16.6-27.7-64.4-33.3-93.3c-5.5-28.8-20-51-24.4-63.2c-4.4-12.2,5.5-84.3,8.9-106.5
		c3.3-22.2,20-71,30-89.9c10-18.9,13.3-54.2,13.3-54.2h124.3C1311.2,1036.4,1332.3,1089.5,1325.6,1120.6z"/>
	<path class="st28" d="M1242.4,1439.1c-0.2,0.1-0.5,0.1-0.8,0.2c-0.1,0-0.3,0.1-0.4,0.1c-0.4,0.1-0.9,0.3-1.4,0.4
		c-0.5,0.2-1.1,0.4-1.6,0.6c-0.4,0.1-0.8,0.3-1.1,0.5c-0.3,0.1-0.6,0.3-1,0.4c-0.4,0.1-0.8,0.3-1.1,0.5c-0.4,0.2-0.8,0.3-1.2,0.5
		c-0.6,0.3-1.2,0.5-1.9,0.8c-0.6,0.2-1.2,0.5-1.8,0.7c-1.3,0.5-2.5,1-3.8,1.5c-0.4,0.2-0.8,0.3-1.2,0.5c2.3-5.4,4.3-10.8,5.1-15.6
		c3.4-21.1-7.9-20-17.9-48.8c-10-28.9-10-36.6-16.6-81c-6.7-44.4-26.6-21.1,0-69.9c26.6-48.8,17.8-61,34.5-66.6
		c16.7-5.5,11.4,11.8,11.4,11.8s-1,2.3-2.6,6.3v-4.9c0-2.7,0-4.3,0-4.3s-26.6,72.1-32.2,95.5c-0.6,2.6-0.9,5.3-0.9,8.3
		c0,0.6,0,1.3,0,1.9c0,0.5,0,1,0.1,1.5c0,0,0,0,0,0c0,0.2,0,0.4,0,0.7c0,0.5,0.1,1.1,0.1,1.7c0,0,0,0,0,0c0.1,0.7,0.1,1.3,0.2,2
		c0.1,0.7,0.2,1.3,0.3,2c0.1,0.8,0.3,1.7,0.4,2.5c0.1,0.5,0.2,1,0.3,1.4c2,10.2,5.7,21.5,9.4,33.2c0.3,1,0.6,2,1,3
		c0.2,0.7,0.5,1.4,0.7,2.1c0.4,1.3,0.8,2.6,1.2,3.8c0.3,1,0.6,2,0.9,3c0,0.1,0.1,0.2,0.1,0.3c0.3,0.8,0.5,1.6,0.8,2.5
		c0,0.1,0.1,0.1,0.1,0.2c0.4,1.5,0.9,3,1.3,4.4c0,0.1,0,0.2,0.1,0.3c0.5,1.6,0.9,3.3,1.3,4.9c0.2,0.7,0.4,1.5,0.6,2.2
		c0,0.1,0,0.1,0.1,0.2c0.2,0.7,0.3,1.3,0.5,2c0.2,0.7,0.3,1.3,0.5,2c0.1,0.7,0.3,1.3,0.4,2c0.4,2,0.8,3.9,1.1,5.8
		c0.1,0.5,0.2,1,0.3,1.6c0.1,0.7,0.2,1.5,0.3,2.2c4.4,33.3,4.4,28.9,11.1,42.2C1245.7,1421.3,1248,1438,1242.4,1439.1z"/>
	<path class="st28" d="M1239.1,1250.4c0,17.8,10,79.9,13.3,99.9c2.3,13.9,5.2,41.7,7.8,63.8c1.2,9.7,2.3,18.2,3.3,23.9
		c0.3,1.9,1,3.5,1.9,4.8c8.3,11.7,37.8,1.6,45.6-0.3c8.7-2.2,4.6-16.6,8-45.5c3.3-28.9-5.5-53.3-7.8-88.8
		c-2.2-35.5,14.4-40,7.9-109.9c-6.6-69.9-0.1-46.6,6.6-77.7c6.7-31.1-14.4-84.1-14.4-84.1h-36.7c0.6,26.6,16.4,99.4-30.7,130.7
		c-2.7,1.8-3.3,6.1-4.8,9.9V1250.4z"/>
	<path class="st28" d="M1224.9,1350.3c1.5,32.9,4.6,65.1,9.2,91.8c3.4-1.4,6.4-2.7,8.3-3c5.6-1.1,3.3-17.8-3.3-31.1
		s-6.7-8.9-11.1-42.2C1227.3,1360.8,1226.2,1355.6,1224.9,1350.3z"/>
	<path class="st21" d="M1049.5,822.4c0.7,6.8,12.2,29.3,22.9,47.4c1.6,2.6,3.1,5.2,4.6,7.6c11.7,18.9,90.7-6.9,98.2,1.7
		c4.2,4.8,7.5,48.4,9.4,89.3c1.5,32.8,1,64.6,0.2,72.3c-1.7,17.2,6.1,5.3,15.3,5.9c9.2,0.6,22.5,1.1,28.3,0
		c5.8-1.1,21.6-1.5,30.8-1.8c4.6-0.2,10.1-1.4,15.3-1.9c5.2-0.5,10.1-0.4,13.8,1.9c7.5,4.8,22.5-0.5,28.3-8.3
		c5.8-7.7,3.3-23.2,3.3-33.5c0-1.5,0.2-2.9,0.7-4.2c2.2-6.2,9.8-10.3,23.5-14.4c3.2-1,6.8-1.9,10.8-2.9c24.1-6,11.7-19.8,10.8-45.6
		s-7.5-78.3-10.8-96.3c-3.3-18-55.8-36.1-65.8-39.6c-10-3.4-5.8-17.2-5.8-17.2c-3.3,2.4-15.3,2.1-26.5,1.4
		c-8.7-0.6-16.9-1.4-20.1-1.4c-7.5,0-2.5,8.6-11.7,17.2c-9.2,8.6-15.8,0-32.5,0s-84.1,26.7-90.7,25.8s-16.6-30.1-16.6-30.1
		S1048.7,814.7,1049.5,822.4z"/>
	<path class="st22" d="M1255.6,945.1c26.6,22.6,50.8,21.7,36.6,47.5c-12.2,22.2-28.7,36.4-17.7,50.2c5.2-0.5,10.1-0.4,13.8,1.9
		c7.5,4.8,22.5-0.5,28.3-8.3c5.8-7.7,3.3-23.2,3.3-33.5c0-1.5,0.2-2.9,0.7-4.2c2.2-6.2,9.8-10.3,23.5-14.4c3.2-1,6.8-1.9,10.8-2.9
		c24.1-6,11.7-19.8,10.8-45.6s-7.5-78.3-10.8-96.3c-3.3-18-55.8-36.1-65.8-39.6c-10-3.4-5.8-17.2-5.8-17.2
		c-3.3,2.4-15.3,2.1-26.5,1.4c6.6,7.6,24.6,34,15.3,71.9C1262.3,896.9,1229,922.6,1255.6,945.1z"/>
	<path class="st22" d="M1230.3,959.3c0,0,21.5,12.5,25.3,27.5s-21.1,24.1-20.3,36.6s8.3-18.3,7.9-32
		C1242.7,977.7,1228.7,965.2,1230.3,959.3z"/>
	<path class="st22" d="M1072.4,869.9c1.6,2.6,3.1,5.2,4.6,7.6c11.7,18.9,90.7-6.9,98.2,1.7c4.2,4.8,7.5,48.4,9.4,89.3
		c3.4-18.3,6.6-29.9,9.8-53.7c4.2-30.8-0.1-52.4-22.1-50.7c-22,1.7-53.7,13.7-79.5,12.1C1081.8,875.4,1076.4,873.2,1072.4,869.9z"/>
	<path class="st21" d="M1283.9,760.6c1.2-0.4,2.1-1.4,2.6-2.5c3.2-8.6,16.5-44.9,16-55.4c-0.6-11.9-12.5-9.5-16.7-17.9
		c-4.2-8.4-3-14.9-17.3-16.7c-14.3-1.8-46.5-3.2-56.7,20.9c-5.5,13,9.3,9.3,8.7,15.9s5.3,8.2,2.4,10c-3,1.8-7.1,12.7-7.1,19.9
		c0,7.2,3,20.8-7.1,22.5c-10.1,1.8-4.6-1.8-7-3.5c-2-1.5-6.4,19-5.9,21.3c2.5,11.6,16.1,8.8,24.1,5.6c15.5-6,9.2-12.9,5-25.5
		c-1.2-3.6-6.3-28.9,1.3-32.4c10.3-4.7,13.3-0.2,12.9,6.8c-0.2,3.5-1.1,7.6-1.8,11.5c-0.9,5-1.2,9.7,1.1,12.2
		C1246,761.4,1258.4,770.2,1283.9,760.6z"/>
</g>
<g>
	<path class="st22" d="M993.1,696.3l32,11.7c0,0-0.5,4.8,0,6.9c-0.1-0.5-3.3-1.6-3.7-1.8c-3-1.4-5.9-2.8-8.8-4.2
		c-5.4-2.5-10.8-5.1-16.2-7.6c-1.7-0.8-5.3-1.6-5.7-3.8C990.3,695.6,991.6,695.7,993.1,696.3z"/>
	<path class="st22" d="M1060.4,719.9c0,0-0.6,10.9-3.3,9.5c-0.4-0.2-1.4-0.7-2.6-1.4v0c-1.2-0.6-2.7-1.4-4.3-2.3
		c-4.8-2.5-10.8-5.7-13.4-7.1c0.1-2.4,0.1-4.8-0.1-6.9l0,0L1060.4,719.9z"/>
</g>
<line class="st15" x1="1045.7" y1="711.7" x2="1045.8" y2="718.7"/>
</svg>
